M48
METRIC,LZ,000.000
;FILE_FORMAT=3:3
;TYPE=PLATED
;Layer: PTH_Through
;EasyEDA v6.5.44, 2024-07-15 21:32:29
;10
;Gerber Generator version 0.2
;Holesize 1 = 0.310 mm
T01C0.310
;Holesize 2 = 0.800 mm
T02C0.800
;Holesize 3 = 0.920 mm
T03C0.920
;Holesize 4 = 1.000 mm
T04C1.000
;Holesize 5 = 2.101 mm
T05C2.101
%
G05
G90
T01
X027947Y049488
X025654Y063373
X025654Y062103
X025654Y057023
X047642Y061976
X057560Y058801
X031399Y064643
X031399Y065913
X044594Y056007
X025654Y065913
X064737Y067294
X064737Y065294
X025654Y060833
X029083Y060833
X046609Y059690
X050813Y065151
X025654Y059563
X059212Y068707
X056867Y068707
X025654Y064643
T02
X067587Y060494G85X065887Y060494
X067587Y072094G85X065887Y072094
T03
X034947Y049488
X032447Y049488
X030447Y049488
X027947Y049488
X016913Y049869
X014413Y049869
X012413Y049869
X009913Y049869
T04
X064737Y069794
X064737Y067294
X064737Y065294
X064737Y062794
T05
X024448Y046778
X038447Y046778
X006414Y047159
X020413Y047159
M30
