M48
METRIC,LZ,000.000
;FILE_FORMAT=3:3
;TYPE=PLATED
;Layer: PTH_Through_Via
;EasyEDA v6.5.44, 2024-07-15 21:32:29
;10
;Gerber Generator version 0.2
;Holesize 1 = 0.310 mm
T01C0.310
%
G05
G90
T01
X027947Y049488
X025654Y063373
X025654Y062103
X025654Y057023
X047642Y061976
X057560Y058801
X031399Y064643
X031399Y065913
X044594Y056007
X025654Y065913
X064737Y067294
X064737Y065294
X025654Y060833
X029083Y060833
X046609Y059690
X050813Y065151
X025654Y059563
X059212Y068707
X056867Y068707
X025654Y064643
M30
