G04 Layer: TopSilkscreenLayer*
G04 EasyEDA v6.5.44, 2024-07-15 21:32:29*
G04 Gerber Generator version 0.2*
G04 Scale: 100 percent, Rotated: No, Reflected: No *
G04 Dimensions in millimeters *
G04 leading zeros omitted , absolute positions ,4 integer and 5 decimal *
%FSLAX45Y45*%
%MOMM*%

%ADD10C,0.1524*%
%ADD11C,0.2540*%
%ADD12C,0.1520*%
%ADD13C,0.3000*%

%LPD*%
G36*
X698449Y6992467D02*
G01*
X698550Y6596532D01*
X700074Y6612534D01*
X701903Y6628384D01*
X706221Y6657238D01*
X709422Y6674866D01*
X713130Y6692900D01*
X717194Y6710578D01*
X721207Y6726377D01*
X727252Y6747713D01*
X733348Y6766814D01*
X738632Y6781901D01*
X746302Y6802881D01*
X755446Y6824929D01*
X762965Y6842201D01*
X771906Y6861708D01*
X781304Y6881215D01*
X796290Y6910628D01*
X813816Y6942683D01*
X823315Y6958787D01*
X830986Y6971030D01*
X835253Y6976770D01*
X838504Y6978853D01*
X843026Y6979310D01*
X845616Y6978040D01*
X846480Y6976059D01*
X846023Y6972960D01*
X846683Y6972960D01*
X853541Y6975856D01*
X865327Y6979869D01*
X879144Y6983679D01*
X890524Y6986168D01*
X903173Y6988352D01*
X920191Y6990588D01*
X934821Y6991756D01*
X949452Y6992315D01*
G37*
G36*
X1981352Y6992467D02*
G01*
X973836Y6992315D01*
X986840Y6991756D01*
X999032Y6990943D01*
X1018133Y6989114D01*
X1032764Y6987235D01*
X1047394Y6985050D01*
X1064514Y6982104D01*
X1084427Y6978091D01*
X1107998Y6972655D01*
X1135075Y6965391D01*
X1156716Y6958939D01*
X1186129Y6949440D01*
X1208786Y6941413D01*
X1227785Y6934301D01*
X1255115Y6923379D01*
X1284020Y6911086D01*
X1301089Y6904126D01*
X1324254Y6895795D01*
X1345387Y6889191D01*
X1369161Y6882688D01*
X1392123Y6877405D01*
X1409598Y6874052D01*
X1427073Y6871106D01*
X1440484Y6869277D01*
X1472590Y6865975D01*
X1499463Y6864350D01*
X1545386Y6864299D01*
X1578305Y6866331D01*
X1594967Y6867804D01*
X1611223Y6869582D01*
X1642110Y6874052D01*
X1657146Y6876643D01*
X1678279Y6880809D01*
X1700631Y6885838D01*
X1719783Y6890664D01*
X1743354Y6897166D01*
X1765706Y6904075D01*
X1782775Y6909765D01*
X1801875Y6916623D01*
X1820570Y6923735D01*
X1836826Y6930390D01*
X1858772Y6940042D01*
X1878685Y6949287D01*
X1900834Y6960717D01*
X1907946Y6964578D01*
X1909927Y6963918D01*
X1911553Y6961936D01*
X1858568Y6868617D01*
X1858568Y6866737D01*
X1860397Y6865569D01*
X1976323Y6865569D01*
X1977694Y6864197D01*
X1977694Y6862724D01*
X1970125Y6856171D01*
X1940102Y6831888D01*
X1925828Y6820865D01*
X1897786Y6799884D01*
X1867712Y6778294D01*
X1840484Y6759803D01*
X1827479Y6751320D01*
X1789277Y6727393D01*
X1768551Y6715252D01*
X1732788Y6695592D01*
X1713687Y6685838D01*
X1695246Y6676948D01*
X1675028Y6667804D01*
X1656334Y6659930D01*
X1643329Y6654749D01*
X1628698Y6649364D01*
X1602689Y6640830D01*
X1587246Y6636410D01*
X1568500Y6631736D01*
X1548028Y6627622D01*
X1531569Y6625132D01*
X1517345Y6623608D01*
X1505966Y6622694D01*
X1453489Y6622694D01*
X1416710Y6624320D01*
X1392529Y6625793D01*
X1369771Y6627672D01*
X1341323Y6630568D01*
X1315770Y6633870D01*
X1300276Y6636105D01*
X1275892Y6640118D01*
X1248206Y6645249D01*
X1208786Y6653682D01*
X1156766Y6666534D01*
X1066952Y6690817D01*
X1033170Y6699656D01*
X976172Y6713677D01*
X940511Y6721754D01*
X915720Y6726885D01*
X889304Y6731660D01*
X863295Y6735368D01*
X847852Y6736994D01*
X824636Y6738823D01*
X789279Y6738874D01*
X775868Y6737908D01*
X758393Y6736130D01*
X750366Y6735064D01*
X749757Y6734454D01*
X746810Y6720484D01*
X744372Y6707428D01*
X741172Y6687007D01*
X738276Y6663842D01*
X736701Y6646570D01*
X735431Y6628942D01*
X734669Y6610908D01*
X734618Y6586423D01*
X1981352Y6586423D01*
G37*
G36*
X921867Y6935063D02*
G01*
X917752Y6935012D01*
X914552Y6934352D01*
X910336Y6932168D01*
X906119Y6928103D01*
X903274Y6922668D01*
X898906Y6902145D01*
X895248Y6887057D01*
X889965Y6867956D01*
X884986Y6852158D01*
X880059Y6837781D01*
X876553Y6829704D01*
X873658Y6821271D01*
X871982Y6814261D01*
X871474Y6806488D01*
X872490Y6801408D01*
X873912Y6798411D01*
X876706Y6795566D01*
X880770Y6793839D01*
X886307Y6793839D01*
X891336Y6795008D01*
X897331Y6797700D01*
X902208Y6800951D01*
X907796Y6806082D01*
X911352Y6810959D01*
X920292Y6826402D01*
X928217Y6840626D01*
X929944Y6840321D01*
X969873Y6826402D01*
X967943Y6816445D01*
X964285Y6799935D01*
X960983Y6787794D01*
X960526Y6778955D01*
X961796Y6774738D01*
X963879Y6771436D01*
X966520Y6769658D01*
X970432Y6768490D01*
X973582Y6768490D01*
X977900Y6769303D01*
X982167Y6771030D01*
X986434Y6773570D01*
X991260Y6777837D01*
X994867Y6782257D01*
X997966Y6787845D01*
X1010208Y6822338D01*
X1017219Y6842963D01*
X1023975Y6864299D01*
X1028598Y6880809D01*
X1031748Y6894068D01*
X1032967Y6898081D01*
X1032967Y6902196D01*
X1031798Y6906412D01*
X1029766Y6909968D01*
X1025702Y6913778D01*
X1020267Y6916064D01*
X1014425Y6916420D01*
X1009700Y6915150D01*
X1006348Y6913270D01*
X1002995Y6910831D01*
X998931Y6905853D01*
X987145Y6884873D01*
X975360Y6861505D01*
X953719Y6868972D01*
X940714Y6874002D01*
X940714Y6878116D01*
X943102Y6887565D01*
X943864Y6892950D01*
X943152Y6901434D01*
X941882Y6909155D01*
X939850Y6916369D01*
X937869Y6921144D01*
X934567Y6926884D01*
X930046Y6931406D01*
X926490Y6933641D01*
G37*
G36*
X1115009Y6899757D02*
G01*
X1112062Y6899706D01*
X1106779Y6898436D01*
X1100734Y6895541D01*
X1093622Y6889445D01*
X1088694Y6882892D01*
X1062990Y6839102D01*
X1051397Y6819900D01*
X1075182Y6819900D01*
X1106322Y6860997D01*
X1107186Y6861505D01*
X1108811Y6861352D01*
X1110843Y6857644D01*
X1110792Y6838899D01*
X1109319Y6826910D01*
X1107541Y6815226D01*
X1107186Y6814870D01*
X1075486Y6819696D01*
X1075182Y6819900D01*
X1051397Y6819900D01*
X1027277Y6780428D01*
X1024026Y6774535D01*
X1022705Y6769760D01*
X1023112Y6764934D01*
X1025194Y6760768D01*
X1029004Y6758584D01*
X1032662Y6758076D01*
X1037793Y6759346D01*
X1043787Y6762902D01*
X1050747Y6769455D01*
X1055370Y6775094D01*
X1059688Y6781546D01*
X1062380Y6786118D01*
X1064107Y6786118D01*
X1094740Y6782968D01*
X1095146Y6782612D01*
X1089914Y6768134D01*
X1084122Y6751015D01*
X1084021Y6744004D01*
X1086307Y6739737D01*
X1089456Y6737705D01*
X1093165Y6736740D01*
X1098804Y6737146D01*
X1105560Y6740093D01*
X1110183Y6743446D01*
X1115110Y6748830D01*
X1117904Y6753961D01*
X1122324Y6767931D01*
X1126032Y6782663D01*
X1129284Y6797751D01*
X1132128Y6815023D01*
X1134770Y6839254D01*
X1134821Y6863181D01*
X1133754Y6872376D01*
X1132179Y6881114D01*
X1130909Y6885584D01*
X1127607Y6890766D01*
X1123848Y6895541D01*
X1121054Y6898335D01*
X1117955Y6899757D01*
G37*
G36*
X1220571Y6864451D02*
G01*
X1210411Y6863384D01*
X1205534Y6862114D01*
X1197406Y6858711D01*
X1190904Y6854291D01*
X1183589Y6847382D01*
X1179017Y6841845D01*
X1173480Y6833768D01*
X1167942Y6823456D01*
X1163167Y6812432D01*
X1159865Y6803186D01*
X1157020Y6793331D01*
X1155395Y6783019D01*
X1154430Y6771995D01*
X1154887Y6757263D01*
X1156208Y6748830D01*
X1158240Y6740753D01*
X1161135Y6733743D01*
X1163574Y6729323D01*
X1167587Y6724091D01*
X1173022Y6719316D01*
X1177899Y6716369D01*
X1182928Y6714083D01*
X1189228Y6712153D01*
X1197000Y6710781D01*
X1203502Y6710324D01*
X1211376Y6713220D01*
X1216050Y6715709D01*
X1221028Y6720128D01*
X1222857Y6723684D01*
X1223619Y6727291D01*
X1222756Y6731508D01*
X1220825Y6734911D01*
X1218438Y6736740D01*
X1205941Y6737197D01*
X1201166Y6738366D01*
X1195527Y6741007D01*
X1191260Y6745325D01*
X1188567Y6750253D01*
X1186535Y6757263D01*
X1186129Y6771843D01*
X1187551Y6782257D01*
X1189939Y6790740D01*
X1195273Y6805320D01*
X1199286Y6814261D01*
X1204569Y6823456D01*
X1209192Y6829247D01*
X1214120Y6833412D01*
X1218539Y6835546D01*
X1224838Y6835851D01*
X1228902Y6834682D01*
X1235354Y6828586D01*
X1240383Y6825894D01*
X1244447Y6825386D01*
X1248206Y6826351D01*
X1252778Y6830466D01*
X1254302Y6834479D01*
X1254252Y6842201D01*
X1252474Y6848094D01*
X1249172Y6853631D01*
X1245412Y6857593D01*
X1240485Y6860895D01*
X1235354Y6862978D01*
X1230731Y6864096D01*
G37*
G36*
X1752295Y6862216D02*
G01*
X1745792Y6861149D01*
X1735632Y6858203D01*
X1721815Y6852107D01*
X1713280Y6847433D01*
X1708657Y6844284D01*
X1706168Y6840829D01*
X1705660Y6838289D01*
X1705985Y6835546D01*
X1725218Y6835546D01*
X1725574Y6836359D01*
X1741728Y6841337D01*
X1747012Y6842353D01*
X1752803Y6842150D01*
X1755952Y6840677D01*
X1758543Y6837222D01*
X1759457Y6833209D01*
X1758137Y6828637D01*
X1755749Y6825234D01*
X1750669Y6820814D01*
X1743049Y6816242D01*
X1736191Y6813245D01*
X1735429Y6813905D01*
X1725218Y6835546D01*
X1705985Y6835546D01*
X1706168Y6833971D01*
X1719219Y6795160D01*
X1739595Y6795160D01*
X1740865Y6796481D01*
X1752295Y6801561D01*
X1760016Y6803390D01*
X1766671Y6803440D01*
X1771091Y6801916D01*
X1774698Y6799072D01*
X1777492Y6794093D01*
X1777746Y6787946D01*
X1775206Y6783222D01*
X1769262Y6778244D01*
X1761286Y6774230D01*
X1746656Y6768846D01*
X1746453Y6769049D01*
X1739595Y6795160D01*
X1719219Y6795160D01*
X1727250Y6770522D01*
X1732178Y6753504D01*
X1735429Y6752285D01*
X1743760Y6752285D01*
X1751075Y6753453D01*
X1762048Y6757162D01*
X1772818Y6761937D01*
X1781352Y6767068D01*
X1787499Y6772300D01*
X1791004Y6776364D01*
X1793493Y6780428D01*
X1795322Y6785965D01*
X1795322Y6792569D01*
X1793189Y6800392D01*
X1790039Y6806996D01*
X1786229Y6812178D01*
X1781098Y6816496D01*
X1775460Y6819138D01*
X1770735Y6820103D01*
X1774799Y6829348D01*
X1777034Y6835952D01*
X1776984Y6844436D01*
X1775256Y6850278D01*
X1772208Y6855815D01*
X1766925Y6860641D01*
X1761642Y6862013D01*
G37*
G36*
X1291742Y6842455D02*
G01*
X1287475Y6840474D01*
X1284986Y6837781D01*
X1283055Y6834124D01*
X1280972Y6826402D01*
X1279753Y6816852D01*
X1278890Y6800646D01*
X1278077Y6791096D01*
X1276858Y6782663D01*
X1275181Y6774942D01*
X1272743Y6766102D01*
X1269441Y6756908D01*
X1264666Y6745833D01*
X1257503Y6732625D01*
X1247190Y6715201D01*
X1245057Y6710172D01*
X1244955Y6703568D01*
X1246784Y6700520D01*
X1249222Y6698691D01*
X1252220Y6697776D01*
X1257960Y6698132D01*
X1264361Y6700824D01*
X1269695Y6704228D01*
X1275283Y6709054D01*
X1281277Y6715709D01*
X1285900Y6722160D01*
X1289862Y6729882D01*
X1295095Y6742531D01*
X1296111Y6745681D01*
X1306677Y6746798D01*
X1306880Y6746595D01*
X1311402Y6727850D01*
X1315110Y6711035D01*
X1318768Y6691426D01*
X1321612Y6686194D01*
X1326337Y6682231D01*
X1330909Y6680250D01*
X1335176Y6679387D01*
X1339697Y6679793D01*
X1343456Y6681317D01*
X1346657Y6684162D01*
X1349248Y6688226D01*
X1350975Y6694017D01*
X1351026Y6702450D01*
X1349603Y6709460D01*
X1346352Y6721500D01*
X1341831Y6734098D01*
X1336751Y6746240D01*
X1332941Y6753047D01*
X1329080Y6756704D01*
X1334719Y6761683D01*
X1347724Y6774535D01*
X1355242Y6782663D01*
X1362202Y6791299D01*
X1365808Y6797802D01*
X1366824Y6803186D01*
X1366367Y6807047D01*
X1364996Y6809638D01*
X1362354Y6811162D01*
X1358747Y6811162D01*
X1354328Y6809943D01*
X1349451Y6807708D01*
X1343355Y6803999D01*
X1337665Y6799986D01*
X1325880Y6790740D01*
X1312570Y6778955D01*
X1307490Y6773214D01*
X1309319Y6781546D01*
X1311402Y6793687D01*
X1312722Y6803593D01*
X1313129Y6822338D01*
X1311859Y6827875D01*
X1308150Y6834682D01*
X1302664Y6839712D01*
X1297228Y6842150D01*
G37*
G36*
X1669338Y6833616D02*
G01*
X1666900Y6832396D01*
X1664766Y6830568D01*
X1662582Y6826148D01*
X1661668Y6821424D01*
X1662633Y6815328D01*
X1667510Y6799224D01*
X1670354Y6782663D01*
X1671574Y6773824D01*
X1672539Y6762800D01*
X1672082Y6751726D01*
X1670354Y6745986D01*
X1668525Y6742938D01*
X1664665Y6740601D01*
X1660042Y6739737D01*
X1655521Y6740601D01*
X1652371Y6742074D01*
X1648409Y6745427D01*
X1646021Y6749897D01*
X1642364Y6759702D01*
X1638655Y6771589D01*
X1632153Y6796633D01*
X1628952Y6808012D01*
X1626870Y6813803D01*
X1624787Y6817715D01*
X1621180Y6821373D01*
X1617675Y6822897D01*
X1613509Y6822897D01*
X1611426Y6822186D01*
X1607870Y6819239D01*
X1605940Y6815378D01*
X1606042Y6807301D01*
X1608632Y6795871D01*
X1615541Y6773468D01*
X1622806Y6751370D01*
X1625193Y6745731D01*
X1628190Y6740347D01*
X1631492Y6735927D01*
X1638452Y6729425D01*
X1644040Y6726123D01*
X1649018Y6724091D01*
X1654302Y6722567D01*
X1661617Y6721348D01*
X1673809Y6721703D01*
X1679092Y6723227D01*
X1683257Y6725412D01*
X1687779Y6729171D01*
X1691182Y6733997D01*
X1692808Y6737400D01*
X1695196Y6743649D01*
X1697685Y6752488D01*
X1698142Y6763003D01*
X1697177Y6773468D01*
X1694738Y6788912D01*
X1691132Y6805066D01*
X1687575Y6817918D01*
X1683715Y6824878D01*
X1680972Y6828281D01*
X1677009Y6831685D01*
X1673504Y6833260D01*
G37*
G36*
X1538427Y6811518D02*
G01*
X1537258Y6811467D01*
X1534007Y6810146D01*
X1531416Y6807657D01*
X1528978Y6803440D01*
X1527556Y6797751D01*
X1528114Y6786676D01*
X1529740Y6773824D01*
X1536242Y6732270D01*
X1539087Y6707631D01*
X1540764Y6697319D01*
X1541576Y6694271D01*
X1543354Y6692798D01*
X1547774Y6691630D01*
X1557985Y6691630D01*
X1568145Y6692696D01*
X1577086Y6694220D01*
X1591614Y6697218D01*
X1605940Y6700774D01*
X1614424Y6703415D01*
X1617726Y6705142D01*
X1620316Y6707631D01*
X1622094Y6710781D01*
X1622450Y6713880D01*
X1620824Y6716217D01*
X1617624Y6718046D01*
X1612849Y6719366D01*
X1605534Y6719316D01*
X1595374Y6716623D01*
X1585214Y6714744D01*
X1569364Y6712966D01*
X1564132Y6713677D01*
X1562100Y6715048D01*
X1561134Y6718401D01*
X1560220Y6726732D01*
X1559001Y6746595D01*
X1558137Y6757263D01*
X1556918Y6768287D01*
X1554937Y6779971D01*
X1552549Y6788505D01*
X1550822Y6796176D01*
X1548384Y6802881D01*
X1545894Y6806895D01*
X1543151Y6809943D01*
X1539646Y6811518D01*
G37*
G36*
X1477518Y6804914D02*
G01*
X1472590Y6804812D01*
X1469034Y6804152D01*
X1464868Y6802932D01*
X1459992Y6800748D01*
X1453337Y6796786D01*
X1448765Y6792214D01*
X1445006Y6787032D01*
X1441399Y6780072D01*
X1438706Y6772656D01*
X1436725Y6763867D01*
X1435252Y6754317D01*
X1435252Y6732270D01*
X1436268Y6724192D01*
X1437843Y6715709D01*
X1439570Y6709460D01*
X1442415Y6701739D01*
X1446326Y6694373D01*
X1450390Y6688836D01*
X1455877Y6683502D01*
X1460398Y6680352D01*
X1464157Y6678422D01*
X1468526Y6676796D01*
X1474216Y6675424D01*
X1484782Y6674967D01*
X1493977Y6676186D01*
X1501394Y6678371D01*
X1507185Y6681114D01*
X1512519Y6685940D01*
X1514805Y6690309D01*
X1515668Y6694931D01*
X1514703Y6700012D01*
X1513281Y6702704D01*
X1510030Y6704126D01*
X1507083Y6704584D01*
X1502308Y6703669D01*
X1491335Y6700418D01*
X1484325Y6699961D01*
X1478991Y6701586D01*
X1475435Y6703720D01*
X1470863Y6707987D01*
X1467104Y6713118D01*
X1463090Y6720484D01*
X1460246Y6728206D01*
X1458214Y6737400D01*
X1457248Y6748932D01*
X1458214Y6758431D01*
X1460144Y6765747D01*
X1462379Y6770522D01*
X1465529Y6774992D01*
X1469593Y6778447D01*
X1474927Y6780733D01*
X1478330Y6781088D01*
X1482953Y6780225D01*
X1488338Y6776872D01*
X1493723Y6774586D01*
X1498244Y6774332D01*
X1501038Y6775703D01*
X1502562Y6778345D01*
X1502968Y6782257D01*
X1501698Y6787591D01*
X1499108Y6792569D01*
X1490065Y6800748D01*
X1482344Y6804101D01*
G37*
G36*
X1128471Y6286754D02*
G01*
X1118514Y6286652D01*
X1116685Y6286347D01*
X1112367Y6284976D01*
X1109624Y6283401D01*
X1106728Y6281064D01*
X1104544Y6278067D01*
X1102614Y6273749D01*
X1102563Y6263233D01*
X1103365Y6261252D01*
X1117447Y6261252D01*
X1117447Y6266535D01*
X1119073Y6269278D01*
X1121765Y6270599D01*
X1124508Y6270650D01*
X1127302Y6269329D01*
X1128979Y6266891D01*
X1128928Y6261811D01*
X1127302Y6258966D01*
X1125067Y6256832D01*
X1122629Y6256121D01*
X1120546Y6256782D01*
X1119022Y6258153D01*
X1117447Y6261252D01*
X1103365Y6261252D01*
X1104341Y6258966D01*
X1106170Y6255969D01*
X1108862Y6252819D01*
X1112367Y6250381D01*
X1115009Y6248958D01*
X1120343Y6247638D01*
X1126744Y6247638D01*
X1130808Y6248704D01*
X1134821Y6250533D01*
X1138682Y6253632D01*
X1141476Y6257086D01*
X1143254Y6260592D01*
X1144778Y6264910D01*
X1144778Y6272580D01*
X1143152Y6277051D01*
X1140815Y6280404D01*
X1137005Y6283502D01*
X1132890Y6285382D01*
G37*
G36*
X1083360Y6286398D02*
G01*
X1081582Y6285484D01*
X1079093Y6280962D01*
X1075486Y6275374D01*
X1074420Y6274257D01*
X1072896Y6274917D01*
X1066444Y6283299D01*
X1064564Y6285179D01*
X1048156Y6283756D01*
X1047750Y6282232D01*
X1048816Y6278930D01*
X1051255Y6267196D01*
X1054303Y6249517D01*
X1055065Y6247536D01*
X1061669Y6247942D01*
X1064463Y6248552D01*
X1065072Y6249416D01*
X1064056Y6257188D01*
X1064412Y6258052D01*
X1065987Y6257696D01*
X1075334Y6248908D01*
X1076198Y6248908D01*
X1081989Y6255664D01*
X1084732Y6259169D01*
X1086256Y6258966D01*
X1086662Y6250432D01*
X1087221Y6249568D01*
X1096162Y6249568D01*
X1096975Y6250482D01*
X1097330Y6260287D01*
X1099108Y6282283D01*
X1098143Y6283655D01*
X1090269Y6285433D01*
G37*
G36*
X1166114Y6282436D02*
G01*
X1162659Y6282385D01*
X1157986Y6281216D01*
X1155446Y6279997D01*
X1151991Y6277813D01*
X1149096Y6274308D01*
X1147724Y6271463D01*
X1146098Y6266891D01*
X1146454Y6258610D01*
X1146831Y6257645D01*
X1160627Y6257645D01*
X1161034Y6261049D01*
X1162507Y6264148D01*
X1164437Y6265519D01*
X1165910Y6265976D01*
X1167028Y6266027D01*
X1170279Y6265316D01*
X1172210Y6263640D01*
X1173022Y6260490D01*
X1172311Y6256832D01*
X1171194Y6254851D01*
X1169060Y6252667D01*
X1166164Y6251498D01*
X1164285Y6251905D01*
X1162100Y6253683D01*
X1160627Y6257645D01*
X1146831Y6257645D01*
X1148080Y6254394D01*
X1149553Y6251702D01*
X1152093Y6248755D01*
X1155090Y6246215D01*
X1160881Y6243726D01*
X1165148Y6243015D01*
X1170432Y6243015D01*
X1174242Y6243726D01*
X1179322Y6246114D01*
X1185164Y6251397D01*
X1187754Y6255969D01*
X1189431Y6261252D01*
X1189431Y6267805D01*
X1187653Y6272123D01*
X1184859Y6275882D01*
X1181557Y6278473D01*
X1175613Y6281115D01*
X1169568Y6282436D01*
G37*
G36*
X1031341Y6281470D02*
G01*
X1028344Y6281420D01*
X1013155Y6278778D01*
X999591Y6276086D01*
X998728Y6275628D01*
X1002792Y6264198D01*
X1009802Y6241948D01*
X1011072Y6240576D01*
X1024737Y6243269D01*
X1032764Y6244640D01*
X1034287Y6244640D01*
X1035354Y6246114D01*
X1036167Y6250584D01*
X1035659Y6252260D01*
X1024940Y6250178D01*
X1024178Y6251905D01*
X1024178Y6253734D01*
X1025093Y6254851D01*
X1032560Y6255461D01*
X1033068Y6255867D01*
X1033475Y6261252D01*
X1032865Y6262827D01*
X1030884Y6262319D01*
X1023721Y6261201D01*
X1022400Y6262420D01*
X1022400Y6265316D01*
X1024737Y6265976D01*
X1031900Y6266738D01*
X1032865Y6267094D01*
X1032865Y6271768D01*
X1032154Y6280607D01*
G37*
G36*
X1195120Y6275984D02*
G01*
X1194460Y6274409D01*
X1193596Y6268313D01*
X1188974Y6243828D01*
X1188262Y6241288D01*
X1188872Y6239865D01*
X1196746Y6238036D01*
X1197965Y6238443D01*
X1201674Y6249568D01*
X1202588Y6249568D01*
X1209141Y6243167D01*
X1214170Y6237528D01*
X1217930Y6232804D01*
X1219708Y6232804D01*
X1219758Y6233972D01*
X1227632Y6253022D01*
X1230274Y6258610D01*
X1229918Y6266434D01*
X1228598Y6268059D01*
X1224330Y6269329D01*
X1222806Y6269126D01*
X1221943Y6266840D01*
X1220978Y6262878D01*
X1219250Y6262878D01*
X1211529Y6272123D01*
X1209040Y6273241D01*
X1198524Y6275578D01*
G37*
G36*
X996594Y6274917D02*
G01*
X993241Y6274866D01*
X976680Y6270548D01*
X975969Y6269075D01*
X983284Y6249822D01*
X983284Y6248908D01*
X980948Y6247638D01*
X977341Y6246926D01*
X976376Y6247790D01*
X970787Y6267500D01*
X970178Y6268313D01*
X968552Y6268313D01*
X955954Y6264656D01*
X950315Y6262674D01*
X950315Y6261303D01*
X955751Y6250584D01*
X965708Y6229197D01*
X967435Y6229197D01*
X980389Y6233210D01*
X980389Y6234785D01*
X978103Y6242354D01*
X978865Y6243066D01*
X981557Y6240373D01*
X982471Y6240373D01*
X984656Y6241999D01*
X985723Y6241999D01*
X986485Y6241186D01*
X987348Y6238240D01*
X988771Y6235700D01*
X991412Y6236055D01*
X1002182Y6238697D01*
X1003553Y6239916D01*
X997051Y6271768D01*
X997051Y6273850D01*
G37*
G36*
X947267Y6261760D02*
G01*
X946505Y6261658D01*
X939901Y6259118D01*
X939444Y6259118D01*
X921156Y6252108D01*
X914653Y6249263D01*
X913130Y6248095D01*
X912672Y6246723D01*
X919378Y6235446D01*
X921105Y6235446D01*
X922274Y6236360D01*
X925880Y6238087D01*
X927049Y6238087D01*
X928166Y6236919D01*
X938326Y6219494D01*
X940053Y6219291D01*
X948690Y6222644D01*
X951230Y6223863D01*
X951484Y6224930D01*
X944575Y6243980D01*
X945184Y6245555D01*
X952500Y6247587D01*
X952500Y6249619D01*
X949045Y6259677D01*
X948842Y6260744D01*
G37*
G36*
X1115618Y6240068D02*
G01*
X1087729Y6239967D01*
X1071829Y6239103D01*
X1067460Y6238443D01*
X1059484Y6237732D01*
X1047343Y6235801D01*
X1035507Y6233464D01*
X1034237Y6232601D01*
X1034745Y6230670D01*
X1057402Y6210300D01*
X1067409Y6200444D01*
X1075602Y6191554D01*
X1119327Y6191554D01*
X1119581Y6196736D01*
X1121003Y6197650D01*
X1127709Y6197650D01*
X1128826Y6198666D01*
X1128115Y6213297D01*
X1129284Y6214821D01*
X1151839Y6214516D01*
X1158748Y6212789D01*
X1162659Y6210706D01*
X1164386Y6209334D01*
X1167485Y6205677D01*
X1169060Y6202629D01*
X1170178Y6199124D01*
X1170889Y6195822D01*
X1170533Y6189929D01*
X1168958Y6185509D01*
X1166012Y6180734D01*
X1161948Y6176924D01*
X1158951Y6175298D01*
X1155090Y6174028D01*
X1150772Y6173317D01*
X1129538Y6173317D01*
X1128115Y6174638D01*
X1128826Y6189065D01*
X1127404Y6189776D01*
X1120902Y6189776D01*
X1119327Y6191554D01*
X1075602Y6191554D01*
X1081836Y6184646D01*
X1090523Y6174181D01*
X1098702Y6163614D01*
X1105560Y6154064D01*
X1116820Y6136233D01*
X1151940Y6136233D01*
X1153972Y6139942D01*
X1156462Y6143244D01*
X1167231Y6155385D01*
X1176680Y6167983D01*
X1178509Y6170828D01*
X1180033Y6171946D01*
X1180795Y6171336D01*
X1179525Y6169304D01*
X1179525Y6168644D01*
X1174546Y6159652D01*
X1167587Y6148476D01*
X1163421Y6142736D01*
X1159052Y6138265D01*
X1155801Y6135928D01*
X1153464Y6134862D01*
X1152398Y6134862D01*
X1151940Y6136233D01*
X1116820Y6136233D01*
X1124559Y6122009D01*
X1129538Y6112154D01*
X1135684Y6098540D01*
X1139952Y6087668D01*
X1142593Y6080302D01*
X1144930Y6080302D01*
X1150112Y6085230D01*
X1153464Y6089802D01*
X1153464Y6090361D01*
X1173734Y6118402D01*
X1179931Y6127597D01*
X1184300Y6134709D01*
X1186688Y6137960D01*
X1201216Y6163818D01*
X1201216Y6164173D01*
X1204112Y6169761D01*
X1204112Y6170117D01*
X1207008Y6175857D01*
X1207008Y6176365D01*
X1211376Y6184849D01*
X1213764Y6190589D01*
X1216812Y6198819D01*
X1217980Y6206337D01*
X1218336Y6215583D01*
X1216761Y6219190D01*
X1214272Y6221933D01*
X1208684Y6224828D01*
X1201775Y6227470D01*
X1193088Y6229858D01*
X1181150Y6232448D01*
X1157071Y6236766D01*
X1154734Y6236766D01*
X1148537Y6237732D01*
X1130452Y6239357D01*
G37*
G36*
X886409Y6236055D02*
G01*
X882091Y6235242D01*
X878078Y6233414D01*
X875182Y6231585D01*
X872591Y6229350D01*
X870000Y6226403D01*
X868222Y6222796D01*
X867308Y6217767D01*
X868118Y6213500D01*
X885139Y6213500D01*
X885139Y6217056D01*
X887526Y6219342D01*
X890422Y6220256D01*
X892556Y6219901D01*
X895146Y6218174D01*
X896823Y6216040D01*
X897839Y6212586D01*
X897839Y6210147D01*
X896670Y6207556D01*
X894943Y6206540D01*
X892200Y6206540D01*
X888949Y6208420D01*
X887018Y6210300D01*
X885139Y6213500D01*
X868118Y6213500D01*
X869746Y6209639D01*
X874623Y6203289D01*
X879195Y6200038D01*
X883869Y6198057D01*
X886764Y6197193D01*
X894740Y6197244D01*
X899820Y6199022D01*
X904189Y6201867D01*
X906830Y6204356D01*
X909777Y6209690D01*
X910590Y6214922D01*
X910082Y6220460D01*
X908202Y6225438D01*
X905256Y6229959D01*
X901039Y6233769D01*
X896213Y6235954D01*
G37*
G36*
X1018895Y6229858D02*
G01*
X1018489Y6229502D01*
X1006602Y6227064D01*
X990498Y6222949D01*
X977646Y6219342D01*
X964641Y6215380D01*
X955954Y6212484D01*
X940358Y6206744D01*
X926592Y6201308D01*
X901649Y6190030D01*
X897534Y6187948D01*
X896569Y6187236D01*
X880262Y6178651D01*
X869492Y6172250D01*
X858926Y6165596D01*
X841095Y6153404D01*
X830681Y6145580D01*
X827430Y6142786D01*
X824128Y6140348D01*
X810412Y6128461D01*
X784656Y6103467D01*
X780237Y6097879D01*
X778154Y6094577D01*
X778154Y6088684D01*
X780491Y6082893D01*
X788630Y6067907D01*
X847902Y6067907D01*
X849325Y6083096D01*
X850290Y6086703D01*
X851204Y6091631D01*
X854710Y6099860D01*
X855167Y6102045D01*
X856894Y6104331D01*
X858316Y6107734D01*
X859637Y6110020D01*
X861974Y6112916D01*
X861974Y6113830D01*
X863396Y6117640D01*
X866343Y6122060D01*
X867054Y6123736D01*
X869391Y6126378D01*
X874776Y6131255D01*
X877011Y6132322D01*
X880719Y6134862D01*
X884275Y6135928D01*
X891692Y6140348D01*
X893978Y6141974D01*
X894080Y6161328D01*
X894892Y6166256D01*
X895959Y6170320D01*
X898550Y6173419D01*
X898550Y6174536D01*
X903833Y6179058D01*
X907694Y6181598D01*
X914298Y6182461D01*
X921156Y6182156D01*
X924255Y6181801D01*
X926592Y6180226D01*
X929894Y6178651D01*
X937463Y6171844D01*
X941984Y6166561D01*
X945032Y6162649D01*
X949401Y6156198D01*
X951026Y6154318D01*
X955598Y6153861D01*
X967994Y6151575D01*
X971854Y6154724D01*
X977646Y6160770D01*
X984351Y6167120D01*
X984351Y6167628D01*
X988364Y6170117D01*
X988364Y6170574D01*
X995171Y6175197D01*
X1002284Y6177280D01*
X1010259Y6177280D01*
X1014730Y6175959D01*
X1018235Y6174333D01*
X1021892Y6170828D01*
X1025906Y6165240D01*
X1027023Y6163310D01*
X1028446Y6157722D01*
X1028903Y6153861D01*
X1029969Y6151981D01*
X1029969Y6132525D01*
X1028953Y6131052D01*
X1027125Y6122212D01*
X1027734Y6119723D01*
X1030274Y6117183D01*
X1030782Y6115608D01*
X1033170Y6112560D01*
X1034237Y6110681D01*
X1034796Y6108395D01*
X1037183Y6105702D01*
X1039368Y6098540D01*
X1040841Y6095898D01*
X1040841Y6094730D01*
X1041501Y6093561D01*
X1042720Y6087008D01*
X1044600Y6082080D01*
X1044600Y6053480D01*
X1042263Y6047232D01*
X1041653Y6042609D01*
X1040942Y6041339D01*
X1040434Y6038545D01*
X1039723Y6038138D01*
X1038047Y6035090D01*
X1037183Y6031839D01*
X1035151Y6029147D01*
X1032865Y6024270D01*
X1030986Y6022594D01*
X1029665Y6019800D01*
X1026515Y6016650D01*
X1023264Y6012484D01*
X1013460Y6003544D01*
X1005179Y5997448D01*
X1001928Y5995670D01*
X999388Y5993942D01*
X995426Y5991809D01*
X992581Y5989980D01*
X989177Y5989269D01*
X985266Y5987186D01*
X980389Y5985611D01*
X979169Y5985611D01*
X975207Y5983884D01*
X964285Y5981903D01*
X951230Y5980582D01*
X936396Y5980938D01*
X918260Y5983732D01*
X913892Y5985611D01*
X912774Y5985611D01*
X907084Y5987288D01*
X905967Y5988151D01*
X902919Y5989574D01*
X901953Y5989574D01*
X898398Y5991656D01*
X893673Y5993892D01*
X891133Y5995670D01*
X887882Y5997448D01*
X878078Y6004610D01*
X869391Y6012840D01*
X866851Y6015939D01*
X863752Y6019190D01*
X861263Y6023914D01*
X859942Y6025235D01*
X858012Y6028740D01*
X858012Y6029401D01*
X855167Y6033770D01*
X854710Y6036056D01*
X851103Y6043218D01*
X851103Y6045403D01*
X849325Y6053175D01*
X848563Y6058763D01*
X847902Y6067907D01*
X788630Y6067907D01*
X794359Y6056630D01*
X802233Y6041999D01*
X814933Y6021273D01*
X821639Y6011418D01*
X828446Y6001867D01*
X839317Y5988100D01*
X853541Y5971794D01*
X864717Y5960110D01*
X872639Y5952896D01*
X962456Y5952896D01*
X962456Y5953709D01*
X964844Y5955995D01*
X985977Y5968695D01*
X1006856Y5982817D01*
X1020826Y5993028D01*
X1029766Y5999886D01*
X1050798Y6017006D01*
X1069289Y6033109D01*
X1070203Y6034278D01*
X1071626Y6034278D01*
X1071626Y6033312D01*
X1071067Y6033109D01*
X1067816Y6029502D01*
X1062380Y6024219D01*
X1054506Y6016040D01*
X1041146Y6003036D01*
X1024788Y5988507D01*
X1006957Y5975197D01*
X989837Y5964580D01*
X989330Y5964580D01*
X983894Y5961481D01*
X978763Y5958941D01*
X964437Y5952693D01*
X962456Y5952896D01*
X872639Y5952896D01*
X889667Y5937504D01*
X929640Y5937504D01*
X930351Y5939180D01*
X933500Y5940806D01*
X939647Y5942126D01*
X942238Y5942228D01*
X943051Y5941466D01*
X942238Y5939891D01*
X939901Y5938570D01*
X935685Y5937250D01*
X930605Y5936894D01*
X929640Y5937504D01*
X889667Y5937504D01*
X897940Y5930849D01*
X916178Y5917336D01*
X918514Y5916472D01*
X933856Y5921857D01*
X943457Y5925464D01*
X954836Y5930188D01*
X971499Y5937859D01*
X980948Y5942482D01*
X1002284Y5954115D01*
X1016406Y5962751D01*
X1030173Y5971794D01*
X1043584Y5981242D01*
X1058062Y5992317D01*
X1072692Y6004509D01*
X1087170Y6017209D01*
X1098245Y6027674D01*
X1125423Y6055156D01*
X1130096Y6060490D01*
X1133449Y6064656D01*
X1134618Y6066790D01*
X1134618Y6067501D01*
X1136243Y6070600D01*
X1136192Y6075832D01*
X1127353Y6095034D01*
X1127353Y6095492D01*
X1118616Y6114288D01*
X1113739Y6123533D01*
X1106322Y6136335D01*
X1102004Y6143244D01*
X1096467Y6151473D01*
X1087882Y6163310D01*
X1078230Y6175552D01*
X1066393Y6188913D01*
X1052169Y6203391D01*
X1037386Y6216548D01*
X1022350Y6228689D01*
X1020013Y6229858D01*
G37*
G36*
X860298Y6218377D02*
G01*
X856030Y6218275D01*
X854202Y6217970D01*
X844448Y6211874D01*
X832205Y6203543D01*
X828700Y6200495D01*
X828294Y6199327D01*
X829157Y6197803D01*
X837082Y6189726D01*
X838504Y6189014D01*
X844296Y6193485D01*
X845921Y6192570D01*
X850595Y6187948D01*
X860348Y6177584D01*
X861821Y6177584D01*
X872134Y6184544D01*
X872134Y6185204D01*
X860552Y6202426D01*
X860094Y6203594D01*
X862634Y6205778D01*
X865428Y6206947D01*
X867054Y6208268D01*
X867054Y6209334D01*
X862939Y6215837D01*
G37*
G36*
X1143508Y6206540D02*
G01*
X1141171Y6205575D01*
X1140409Y6204254D01*
X1140409Y6199327D01*
X1141120Y6197650D01*
X1147114Y6197650D01*
X1148740Y6196634D01*
X1148740Y6191199D01*
X1147064Y6189776D01*
X1141526Y6189776D01*
X1140307Y6188659D01*
X1140663Y6183426D01*
X1142390Y6182156D01*
X1150366Y6182360D01*
X1153007Y6183528D01*
X1155700Y6185966D01*
X1157427Y6188456D01*
X1158494Y6192215D01*
X1158494Y6196177D01*
X1157528Y6199835D01*
X1155649Y6202476D01*
X1152499Y6204813D01*
X1148943Y6206236D01*
G37*
G36*
X818743Y6179159D02*
G01*
X802081Y6178651D01*
X798068Y6177940D01*
X792632Y6177584D01*
X782167Y6175908D01*
X770178Y6173266D01*
X758240Y6170066D01*
X747014Y6166256D01*
X735076Y6161125D01*
X725322Y6156096D01*
X721309Y6153708D01*
X713536Y6148425D01*
X712063Y6146698D01*
X713130Y6144869D01*
X719429Y6137503D01*
X729538Y6126581D01*
X742797Y6114542D01*
X750519Y6108395D01*
X759714Y6101943D01*
X766368Y6097727D01*
X767842Y6097727D01*
X778154Y6109004D01*
X787552Y6118606D01*
X803249Y6133693D01*
X816914Y6145885D01*
X831392Y6157722D01*
X844448Y6167170D01*
X851916Y6173825D01*
X852982Y6175654D01*
X851814Y6176822D01*
X846582Y6177635D01*
X834288Y6178854D01*
G37*
G36*
X913942Y6178854D02*
G01*
X912469Y6178550D01*
X908710Y6177280D01*
X905967Y6175705D01*
X903376Y6173165D01*
X900785Y6169710D01*
X898956Y6164630D01*
X898245Y6160973D01*
X897839Y6152134D01*
X898398Y6139942D01*
X896569Y6138367D01*
X887221Y6132880D01*
X886917Y6132880D01*
X879195Y6128816D01*
X875487Y6126378D01*
X871321Y6122212D01*
X868680Y6117945D01*
X866241Y6112103D01*
X862279Y6105804D01*
X859536Y6100521D01*
X855218Y6089345D01*
X853694Y6083096D01*
X852220Y6074511D01*
X852271Y6067450D01*
X865073Y6067450D01*
X865073Y6077508D01*
X866292Y6081420D01*
X867410Y6086703D01*
X868476Y6090310D01*
X870813Y6095593D01*
X872896Y6099556D01*
X877519Y6107074D01*
X879449Y6112002D01*
X881278Y6115304D01*
X883412Y6117793D01*
X888237Y6120587D01*
X894587Y6123686D01*
X899109Y6126530D01*
X904900Y6129680D01*
X909777Y6131915D01*
X910945Y6133998D01*
X910945Y6142228D01*
X910285Y6153759D01*
X910793Y6160312D01*
X911860Y6164376D01*
X913434Y6166408D01*
X915009Y6167424D01*
X918260Y6167069D01*
X920800Y6165443D01*
X924610Y6162090D01*
X929132Y6156706D01*
X933703Y6150457D01*
X937666Y6143142D01*
X937666Y6142583D01*
X940816Y6139434D01*
X950468Y6139434D01*
X967892Y6135827D01*
X972972Y6135725D01*
X977290Y6138214D01*
X986942Y6147155D01*
X991768Y6152083D01*
X998931Y6158585D01*
X1003198Y6161430D01*
X1005789Y6162192D01*
X1008126Y6161786D01*
X1009599Y6160312D01*
X1011072Y6157671D01*
X1012190Y6153759D01*
X1012952Y6147511D01*
X1013358Y6141923D01*
X1012647Y6134354D01*
X1011123Y6127445D01*
X1009396Y6121704D01*
X1010412Y6116574D01*
X1012444Y6113221D01*
X1016508Y6107734D01*
X1020165Y6101181D01*
X1024128Y6092240D01*
X1027430Y6079134D01*
X1028192Y6072581D01*
X1028598Y6066993D01*
X1027430Y6056122D01*
X1024432Y6045250D01*
X1022248Y6040018D01*
X1017016Y6030722D01*
X1009650Y6021578D01*
X1001572Y6014161D01*
X996340Y6010605D01*
X995426Y6009792D01*
X987094Y6005068D01*
X979474Y6001613D01*
X970229Y5998768D01*
X956665Y5996127D01*
X947267Y5995670D01*
X935685Y5996178D01*
X931316Y5997092D01*
X928065Y5997498D01*
X922629Y5998819D01*
X913587Y6001664D01*
X904544Y6005779D01*
X895908Y6010960D01*
X890778Y6014770D01*
X885596Y6019292D01*
X876960Y6029502D01*
X872998Y6035751D01*
X871118Y6039358D01*
X870610Y6040983D01*
X870051Y6041644D01*
X868171Y6046571D01*
X866343Y6053074D01*
X866292Y6054496D01*
X865124Y6057442D01*
X865073Y6067450D01*
X852271Y6067450D01*
X852271Y6060389D01*
X853744Y6052159D01*
X855522Y6045250D01*
X856589Y6041999D01*
X859891Y6034430D01*
X862787Y6029147D01*
X866800Y6022898D01*
X875131Y6013043D01*
X883513Y6005474D01*
X893368Y5998768D01*
X899160Y5995517D01*
X905611Y5992571D01*
X913231Y5989624D01*
X921918Y5987135D01*
X926236Y5986221D01*
X937107Y5984595D01*
X951230Y5984240D01*
X961034Y5985306D01*
X966825Y5986170D01*
X971854Y5987288D01*
X977646Y5988964D01*
X987450Y5992469D01*
X992174Y5994704D01*
X997915Y5997752D01*
X1008837Y6004915D01*
X1018641Y6013754D01*
X1022807Y6018530D01*
X1029157Y6027216D01*
X1033526Y6035243D01*
X1034846Y6038189D01*
X1037183Y6044438D01*
X1039418Y6052108D01*
X1039418Y6053582D01*
X1040637Y6057747D01*
X1040637Y6077813D01*
X1039723Y6080455D01*
X1039063Y6085281D01*
X1037183Y6091885D01*
X1033170Y6102807D01*
X1027887Y6112662D01*
X1022400Y6120231D01*
X1022400Y6121958D01*
X1023061Y6123838D01*
X1024585Y6130086D01*
X1026109Y6142329D01*
X1025245Y6148832D01*
X1024534Y6156401D01*
X1023010Y6160973D01*
X1021537Y6164275D01*
X1019708Y6166916D01*
X1016863Y6170066D01*
X1013561Y6172098D01*
X1008786Y6173622D01*
X1004011Y6173622D01*
X999032Y6172250D01*
X995781Y6170574D01*
X991616Y6167729D01*
X983894Y6160973D01*
X970483Y6147968D01*
X968806Y6147257D01*
X964996Y6147917D01*
X956310Y6149898D01*
X947978Y6151219D01*
X946759Y6151676D01*
X946251Y6153099D01*
X943356Y6157722D01*
X938987Y6163614D01*
X934313Y6169202D01*
X928217Y6174587D01*
X924102Y6177076D01*
X919378Y6178651D01*
G37*
G36*
X702360Y6140450D02*
G01*
X695807Y6134760D01*
X695807Y6130899D01*
X697331Y6128105D01*
X700633Y6123533D01*
X705764Y6117590D01*
X710946Y6112002D01*
X723849Y6100470D01*
X734212Y6092393D01*
X751281Y6080607D01*
X752754Y6080607D01*
X756056Y6083046D01*
X757529Y6084417D01*
X762101Y6091478D01*
X761644Y6092748D01*
X755700Y6096406D01*
X745134Y6103772D01*
X731824Y6114288D01*
X716991Y6127800D01*
X704392Y6140450D01*
G37*
G36*
X898652Y6108903D02*
G01*
X895603Y6106871D01*
X893521Y6103874D01*
X892657Y6101588D01*
X892695Y6101283D01*
X895603Y6101283D01*
X896061Y6102654D01*
X896670Y6102654D01*
X897128Y6101588D01*
X897077Y6099505D01*
X896467Y6098641D01*
X896112Y6099200D01*
X895603Y6101283D01*
X892695Y6101283D01*
X893013Y6098387D01*
X895705Y6095390D01*
X899261Y6093764D01*
X900887Y6093764D01*
X903122Y6094984D01*
X905662Y6097879D01*
X907643Y6101537D01*
X908050Y6103823D01*
X906576Y6106414D01*
X905256Y6107531D01*
X901750Y6108903D01*
G37*
G36*
X948334Y6101283D02*
G01*
X946505Y6100775D01*
X943305Y6099251D01*
X939495Y6095746D01*
X936853Y6091428D01*
X936371Y6089599D01*
X940816Y6089599D01*
X942136Y6094577D01*
X945184Y6097371D01*
X946658Y6097371D01*
X947775Y6096965D01*
X947775Y6096457D01*
X946403Y6096152D01*
X945134Y6093917D01*
X944829Y6087008D01*
X944270Y6086500D01*
X942441Y6087160D01*
X940816Y6089599D01*
X936371Y6089599D01*
X936193Y6088989D01*
X937006Y6087262D01*
X941069Y6085484D01*
X942898Y6084366D01*
X947216Y6083147D01*
X951433Y6083249D01*
X956005Y6085179D01*
X962253Y6091072D01*
X962710Y6092748D01*
X962253Y6094018D01*
X956157Y6099352D01*
X951941Y6101029D01*
G37*
G36*
X768705Y6085535D02*
G01*
X765454Y6082436D01*
X762914Y6079439D01*
X760984Y6075832D01*
X759866Y6071819D01*
X759866Y6068212D01*
X761288Y6063132D01*
X764032Y6056782D01*
X768299Y6049568D01*
X769213Y6048552D01*
X774141Y6040323D01*
X786231Y6022086D01*
X795172Y6009081D01*
X810971Y5987897D01*
X823366Y5972606D01*
X836980Y5957519D01*
X852881Y5941415D01*
X869391Y5926582D01*
X877011Y5920028D01*
X883005Y5915914D01*
X887882Y5913374D01*
X893470Y5911900D01*
X902004Y5912154D01*
X907237Y5913678D01*
X907237Y5915507D01*
X904443Y5917184D01*
X888949Y5929528D01*
X867206Y5949289D01*
X849274Y5967679D01*
X834948Y5983782D01*
X830834Y5989066D01*
X827735Y5992672D01*
X813562Y6011722D01*
X803503Y6026353D01*
X797712Y6035598D01*
X797255Y6036056D01*
X789940Y6048248D01*
X776376Y6073038D01*
X770636Y6084722D01*
X769924Y6085535D01*
G37*
G36*
X896315Y6080963D02*
G01*
X893673Y6080861D01*
X888237Y6079998D01*
X884834Y6078270D01*
X882294Y6075730D01*
X881837Y6073444D01*
X882294Y6071514D01*
X885494Y6068618D01*
X885494Y6067094D01*
X884377Y6065062D01*
X885596Y6062573D01*
X887882Y6060643D01*
X890422Y6059322D01*
X892657Y6058865D01*
X899007Y6059627D01*
X901090Y6060592D01*
X901750Y6063081D01*
X904951Y6063538D01*
X907694Y6064808D01*
X909472Y6066332D01*
X911606Y6070092D01*
X911606Y6072428D01*
X909828Y6075527D01*
X907440Y6077559D01*
X905459Y6078626D01*
X901649Y6079998D01*
G37*
G36*
X729538Y6060287D02*
G01*
X729030Y6058865D01*
X729945Y6057950D01*
X730758Y6057950D01*
X737616Y6055106D01*
X747369Y6049924D01*
X764641Y6039866D01*
X766419Y6039866D01*
X766419Y6040780D01*
X763524Y6044641D01*
X758494Y6049010D01*
X753160Y6052210D01*
X744118Y6056223D01*
X736295Y6058611D01*
G37*
G36*
X682955Y6052820D02*
G01*
X671982Y6052515D01*
X670864Y6050788D01*
X671626Y6050076D01*
X678230Y6050432D01*
X691997Y6049721D01*
X707948Y6047384D01*
X722426Y6044387D01*
X737819Y6040120D01*
X754278Y6034633D01*
X761136Y6031941D01*
X764540Y6029960D01*
X766216Y6030163D01*
X766216Y6031433D01*
X759358Y6036564D01*
X752043Y6040729D01*
X743762Y6044387D01*
X728929Y6048705D01*
X715518Y6051042D01*
X705053Y6052007D01*
X694893Y6052667D01*
G37*
G36*
X891743Y6052362D02*
G01*
X889660Y6052312D01*
X886307Y6051092D01*
X884072Y6049010D01*
X884123Y6046266D01*
X886663Y6043879D01*
X895858Y6041186D01*
X903782Y6040831D01*
X916787Y6039764D01*
X930605Y6041136D01*
X934821Y6042507D01*
X937463Y6044031D01*
X938784Y6045403D01*
X938580Y6046927D01*
X937158Y6047130D01*
X917905Y6044133D01*
X915009Y6044133D01*
X907897Y6047435D01*
X906729Y6047435D01*
X897991Y6050381D01*
X895858Y6051296D01*
G37*
G36*
X688746Y6033211D02*
G01*
X680770Y6032703D01*
X673150Y6031636D01*
X665937Y6030214D01*
X659028Y6028588D01*
X649274Y6025642D01*
X642772Y6023356D01*
X642010Y6022848D01*
X640334Y6022390D01*
X627176Y6015939D01*
X618642Y6010757D01*
X613054Y6007049D01*
X606856Y6002426D01*
X596392Y5993028D01*
X590702Y5987084D01*
X584809Y5979871D01*
X578916Y5971286D01*
X574751Y5964072D01*
X571550Y5957163D01*
X568452Y5948629D01*
X567537Y5942533D01*
X568909Y5942990D01*
X580390Y5952236D01*
X584809Y5954979D01*
X592429Y5959144D01*
X604723Y5964275D01*
X614883Y5966866D01*
X622858Y5968187D01*
X633730Y5968593D01*
X640080Y5968136D01*
X641146Y5967171D01*
X641146Y5966206D01*
X637540Y5964580D01*
X631545Y5960872D01*
X626110Y5956858D01*
X619302Y5950915D01*
X614476Y5945682D01*
X609092Y5939078D01*
X605739Y5934506D01*
X600202Y5925667D01*
X594715Y5915406D01*
X588721Y5901639D01*
X581304Y5880912D01*
X572617Y5852972D01*
X569620Y5844387D01*
X566928Y5837732D01*
X566928Y5836970D01*
X560730Y5823966D01*
X557784Y5818784D01*
X553720Y5812840D01*
X547776Y5805627D01*
X541020Y5799328D01*
X537057Y5796330D01*
X533349Y5794044D01*
X531063Y5792978D01*
X530250Y5791555D01*
X531215Y5790996D01*
X533400Y5790996D01*
X541375Y5789726D01*
X559562Y5787390D01*
X568553Y5786729D01*
X585927Y5786729D01*
X594918Y5787390D01*
X597154Y5787999D01*
X605840Y5788710D01*
X614172Y5790285D01*
X628294Y5793689D01*
X637692Y5796534D01*
X643585Y5798870D01*
X644652Y5798870D01*
X656539Y5804052D01*
X668832Y5809945D01*
X675335Y5813501D01*
X684377Y5819038D01*
X696518Y5827268D01*
X711504Y5838850D01*
X731977Y5856782D01*
X747776Y5871565D01*
X748334Y5872530D01*
X750468Y5872530D01*
X750925Y5870803D01*
X750519Y5858865D01*
X749046Y5848045D01*
X746099Y5836208D01*
X742492Y5827623D01*
X740664Y5823966D01*
X737768Y5819038D01*
X733094Y5812536D01*
X725779Y5804763D01*
X718464Y5799175D01*
X710946Y5794756D01*
X708660Y5793028D01*
X709218Y5792520D01*
X732028Y5791200D01*
X745947Y5793841D01*
X760425Y5798007D01*
X761136Y5798464D01*
X762965Y5798972D01*
X773480Y5803493D01*
X782523Y5808167D01*
X787603Y5811164D01*
X796645Y5817412D01*
X807618Y5826150D01*
X817321Y5836208D01*
X822756Y5842762D01*
X826008Y5847029D01*
X831189Y5854700D01*
X835863Y5862828D01*
X838555Y5868720D01*
X841400Y5876645D01*
X842873Y5882538D01*
X844803Y5893054D01*
X844803Y5912764D01*
X843483Y5920333D01*
X842010Y5926582D01*
X840536Y5931204D01*
X838403Y5936792D01*
X834339Y5944209D01*
X832459Y5944006D01*
X832002Y5932170D01*
X830173Y5920994D01*
X827176Y5910173D01*
X823518Y5900978D01*
X818743Y5891784D01*
X813765Y5884214D01*
X811479Y5881217D01*
X804265Y5873038D01*
X793699Y5863488D01*
X784453Y5856732D01*
X783132Y5856732D01*
X782421Y5857544D01*
X783031Y5901944D01*
X783437Y5905906D01*
X784148Y5909462D01*
X784148Y5911697D01*
X785672Y5917742D01*
X787501Y5923330D01*
X788009Y5923991D01*
X788517Y5925769D01*
X786841Y5926683D01*
X770940Y5927445D01*
X750671Y5926074D01*
X740714Y5924296D01*
X735076Y5922924D01*
X722528Y5919216D01*
X714705Y5916371D01*
X702564Y5911138D01*
X693064Y5906363D01*
X686612Y5902756D01*
X663092Y5888278D01*
X661873Y5888278D01*
X661009Y5889244D01*
X663194Y5902604D01*
X665124Y5910021D01*
X666546Y5914288D01*
X670102Y5922975D01*
X673811Y5929579D01*
X678840Y5937097D01*
X681583Y5940602D01*
X687628Y5946952D01*
X693420Y5952134D01*
X696722Y5954522D01*
X698144Y5955792D01*
X705002Y5960465D01*
X717346Y5967120D01*
X725627Y5970879D01*
X740257Y5976416D01*
X741222Y5976416D01*
X743254Y5977331D01*
X750265Y5979109D01*
X750925Y5979617D01*
X750468Y5981344D01*
X749706Y5981344D01*
X739800Y5985256D01*
X731316Y5988253D01*
X730504Y5988253D01*
X728218Y5989167D01*
X719531Y5991809D01*
X705561Y5995111D01*
X697585Y5996736D01*
X680872Y5999226D01*
X680262Y6000750D01*
X688848Y6004001D01*
X689406Y6004001D01*
X693826Y6005626D01*
X707390Y6008979D01*
X713384Y6010249D01*
X724966Y6011875D01*
X734009Y6012891D01*
X749198Y6013297D01*
X761492Y6012484D01*
X772210Y6012230D01*
X772160Y6012738D01*
X769010Y6014516D01*
X768400Y6014516D01*
X755345Y6020663D01*
X746150Y6024422D01*
X736904Y6027470D01*
X722934Y6030772D01*
X709015Y6032957D01*
G37*
G36*
X1028953Y5957976D02*
G01*
X1023619Y5954522D01*
X1013510Y5948527D01*
X1002284Y5942380D01*
X994156Y5938266D01*
X993851Y5938266D01*
X980287Y5931712D01*
X979932Y5931712D01*
X962456Y5924092D01*
X924458Y5908344D01*
X923188Y5907278D01*
X923188Y5905957D01*
X927963Y5892088D01*
X930402Y5886500D01*
X930402Y5885942D01*
X932891Y5881166D01*
X935024Y5876290D01*
X939698Y5868060D01*
X946099Y5858865D01*
X951382Y5852617D01*
X955243Y5848858D01*
X957376Y5848858D01*
X961491Y5850636D01*
X965708Y5853938D01*
X976833Y5863793D01*
X986485Y5873343D01*
X998016Y5886145D01*
X1002131Y5891428D01*
X1008887Y5900775D01*
X1016762Y5913424D01*
X1021994Y5923991D01*
X1021994Y5924651D01*
X1025347Y5932170D01*
X1028547Y5940399D01*
X1031138Y5950254D01*
X1030376Y5957366D01*
X1029919Y5957976D01*
G37*
G36*
X867054Y5907684D02*
G01*
X866648Y5906109D01*
X867765Y5901283D01*
X868527Y5893054D01*
X869187Y5890006D01*
X869950Y5879592D01*
X870356Y5877102D01*
X871829Y5876391D01*
X872236Y5876798D01*
X873556Y5882233D01*
X874369Y5891428D01*
X873912Y5899302D01*
X872083Y5904636D01*
X869035Y5907684D01*
G37*
G36*
X912114Y5905398D02*
G01*
X910437Y5904331D01*
X902360Y5901791D01*
X900988Y5900318D01*
X901446Y5896610D01*
X904392Y5886145D01*
X907186Y5878576D01*
X910539Y5870752D01*
X914755Y5863488D01*
X917092Y5859881D01*
X922477Y5852820D01*
X925880Y5848705D01*
X931621Y5843270D01*
X936701Y5839460D01*
X941578Y5839612D01*
X945642Y5841288D01*
X946048Y5841288D01*
X948131Y5842660D01*
X948131Y5843676D01*
X938174Y5856884D01*
X930757Y5867755D01*
X927862Y5872378D01*
X923645Y5880252D01*
X919226Y5890107D01*
X916584Y5897676D01*
X915263Y5903061D01*
X914146Y5904992D01*
G37*
G36*
X862888Y5895086D02*
G01*
X861415Y5894781D01*
X860907Y5894070D01*
X860856Y5892088D01*
X858774Y5883198D01*
X857300Y5878271D01*
X854760Y5871057D01*
X851916Y5864148D01*
X849020Y5857900D01*
X844956Y5850483D01*
X840079Y5842762D01*
X832205Y5832246D01*
X823061Y5822035D01*
X811834Y5811824D01*
X806602Y5807608D01*
X806602Y5807100D01*
X807974Y5807100D01*
X810514Y5808065D01*
X821232Y5815584D01*
X833221Y5824931D01*
X842721Y5834735D01*
X846226Y5838850D01*
X851560Y5846064D01*
X853592Y5849670D01*
X858012Y5858459D01*
X858012Y5859221D01*
X859078Y5861100D01*
X861923Y5871108D01*
X863396Y5880252D01*
X863803Y5884214D01*
X863904Y5894222D01*
G37*
D10*
X2141956Y6221221D02*
G01*
X2152370Y6226555D01*
X2162784Y6236970D01*
X2167864Y6247129D01*
X2167864Y6267957D01*
X2162784Y6278371D01*
X2152370Y6288786D01*
X2141956Y6294120D01*
X2126208Y6299200D01*
X2100300Y6299200D01*
X2084806Y6294120D01*
X2074392Y6288786D01*
X2063978Y6278371D01*
X2058898Y6267957D01*
X2058898Y6247129D01*
X2063978Y6236970D01*
X2074392Y6226555D01*
X2084806Y6221221D01*
X2147036Y6186931D02*
G01*
X2152370Y6176518D01*
X2167864Y6161023D01*
X2058898Y6161023D01*
X4441926Y5791707D02*
G01*
X4436592Y5802121D01*
X4426178Y5812536D01*
X4416018Y5817615D01*
X4395190Y5817615D01*
X4384776Y5812536D01*
X4374362Y5802121D01*
X4369028Y5791707D01*
X4363948Y5775960D01*
X4363948Y5750052D01*
X4369028Y5734557D01*
X4374362Y5724144D01*
X4384776Y5713729D01*
X4395190Y5708650D01*
X4416018Y5708650D01*
X4426178Y5713729D01*
X4436592Y5724144D01*
X4441926Y5734557D01*
X4481296Y5791707D02*
G01*
X4481296Y5796787D01*
X4486630Y5807202D01*
X4491710Y5812536D01*
X4502124Y5817615D01*
X4522952Y5817615D01*
X4533366Y5812536D01*
X4538446Y5807202D01*
X4543780Y5796787D01*
X4543780Y5786373D01*
X4538446Y5775960D01*
X4528032Y5760465D01*
X4476216Y5708650D01*
X4548860Y5708650D01*
X4746726Y6388607D02*
G01*
X4741392Y6399021D01*
X4730978Y6409436D01*
X4720818Y6414515D01*
X4699990Y6414515D01*
X4689576Y6409436D01*
X4679162Y6399021D01*
X4673828Y6388607D01*
X4668748Y6372860D01*
X4668748Y6346952D01*
X4673828Y6331457D01*
X4679162Y6321044D01*
X4689576Y6310629D01*
X4699990Y6305550D01*
X4720818Y6305550D01*
X4730978Y6310629D01*
X4741392Y6321044D01*
X4746726Y6331457D01*
X4791430Y6414515D02*
G01*
X4848580Y6414515D01*
X4817338Y6372860D01*
X4832832Y6372860D01*
X4843246Y6367779D01*
X4848580Y6362700D01*
X4853660Y6346952D01*
X4853660Y6336537D01*
X4848580Y6321044D01*
X4838166Y6310629D01*
X4822418Y6305550D01*
X4806924Y6305550D01*
X4791430Y6310629D01*
X4786096Y6315710D01*
X4781016Y6326123D01*
X5203926Y6706108D02*
G01*
X5198592Y6716521D01*
X5188178Y6726936D01*
X5178018Y6732015D01*
X5157190Y6732015D01*
X5146776Y6726936D01*
X5136362Y6716521D01*
X5131028Y6706108D01*
X5125948Y6690360D01*
X5125948Y6664452D01*
X5131028Y6648958D01*
X5136362Y6638544D01*
X5146776Y6628129D01*
X5157190Y6623050D01*
X5178018Y6623050D01*
X5188178Y6628129D01*
X5198592Y6638544D01*
X5203926Y6648958D01*
X5290032Y6732015D02*
G01*
X5238216Y6659371D01*
X5316194Y6659371D01*
X5290032Y6732015D02*
G01*
X5290032Y6623050D01*
X5878537Y6071107D02*
G01*
X5873203Y6081521D01*
X5862789Y6091936D01*
X5852629Y6097015D01*
X5831801Y6097015D01*
X5821387Y6091936D01*
X5810973Y6081521D01*
X5805639Y6071107D01*
X5800559Y6055360D01*
X5800559Y6029452D01*
X5805639Y6013957D01*
X5810973Y6003544D01*
X5821387Y5993129D01*
X5831801Y5988050D01*
X5852629Y5988050D01*
X5862789Y5993129D01*
X5873203Y6003544D01*
X5878537Y6013957D01*
X5975057Y6097015D02*
G01*
X5923241Y6097015D01*
X5917907Y6050279D01*
X5923241Y6055360D01*
X5938735Y6060694D01*
X5954229Y6060694D01*
X5969977Y6055360D01*
X5980391Y6045200D01*
X5985471Y6029452D01*
X5985471Y6019037D01*
X5980391Y6003544D01*
X5969977Y5993129D01*
X5954229Y5988050D01*
X5938735Y5988050D01*
X5923241Y5993129D01*
X5917907Y5998210D01*
X5912827Y6008623D01*
X2330932Y6121400D02*
G01*
X2408910Y6121400D01*
X2424404Y6126479D01*
X2434818Y6136894D01*
X2439898Y6152642D01*
X2439898Y6163055D01*
X2434818Y6178550D01*
X2424404Y6188963D01*
X2408910Y6194044D01*
X2330932Y6194044D01*
X2351760Y6228334D02*
G01*
X2346426Y6238747D01*
X2330932Y6254495D01*
X2439898Y6254495D01*
X6240932Y6620903D02*
G01*
X6318910Y6620903D01*
X6334404Y6625983D01*
X6344818Y6636397D01*
X6349898Y6652145D01*
X6349898Y6662559D01*
X6344818Y6678053D01*
X6334404Y6688467D01*
X6318910Y6693547D01*
X6240932Y6693547D01*
X6256426Y6800735D02*
G01*
X6246012Y6790321D01*
X6240932Y6774573D01*
X6240932Y6753999D01*
X6246012Y6738251D01*
X6256426Y6727837D01*
X6266840Y6727837D01*
X6277254Y6733171D01*
X6282588Y6738251D01*
X6287668Y6748665D01*
X6298082Y6779907D01*
X6303162Y6790321D01*
X6308496Y6795401D01*
X6318910Y6800735D01*
X6334404Y6800735D01*
X6344818Y6790321D01*
X6349898Y6774573D01*
X6349898Y6753999D01*
X6344818Y6738251D01*
X6334404Y6727837D01*
X6240932Y6835025D02*
G01*
X6349898Y6835025D01*
X6240932Y6835025D02*
G01*
X6240932Y6881761D01*
X6246012Y6897255D01*
X6251346Y6902589D01*
X6261760Y6907669D01*
X6272174Y6907669D01*
X6282588Y6902589D01*
X6287668Y6897255D01*
X6292748Y6881761D01*
X6292748Y6835025D02*
G01*
X6292748Y6881761D01*
X6298082Y6897255D01*
X6303162Y6902589D01*
X6313576Y6907669D01*
X6329324Y6907669D01*
X6339738Y6902589D01*
X6344818Y6897255D01*
X6349898Y6881761D01*
X6349898Y6835025D01*
X6261760Y6941959D02*
G01*
X6256426Y6952373D01*
X6240932Y6967867D01*
X6349898Y6967867D01*
X3130550Y5275719D02*
G01*
X3130550Y5197741D01*
X3135629Y5182247D01*
X3146043Y5171833D01*
X3161791Y5166753D01*
X3172206Y5166753D01*
X3187700Y5171833D01*
X3198113Y5182247D01*
X3203193Y5197741D01*
X3203193Y5275719D01*
X3310381Y5260225D02*
G01*
X3299968Y5270639D01*
X3284220Y5275719D01*
X3263645Y5275719D01*
X3247897Y5270639D01*
X3237484Y5260225D01*
X3237484Y5249811D01*
X3242818Y5239397D01*
X3247897Y5234063D01*
X3258311Y5228983D01*
X3289554Y5218569D01*
X3299968Y5213489D01*
X3305047Y5208155D01*
X3310381Y5197741D01*
X3310381Y5182247D01*
X3299968Y5171833D01*
X3284220Y5166753D01*
X3263645Y5166753D01*
X3247897Y5171833D01*
X3237484Y5182247D01*
X3344672Y5275719D02*
G01*
X3344672Y5166753D01*
X3344672Y5275719D02*
G01*
X3391408Y5275719D01*
X3406902Y5270639D01*
X3412236Y5265305D01*
X3417315Y5254891D01*
X3417315Y5244477D01*
X3412236Y5234063D01*
X3406902Y5228983D01*
X3391408Y5223903D01*
X3344672Y5223903D02*
G01*
X3391408Y5223903D01*
X3406902Y5218569D01*
X3412236Y5213489D01*
X3417315Y5203075D01*
X3417315Y5187327D01*
X3412236Y5176913D01*
X3406902Y5171833D01*
X3391408Y5166753D01*
X3344672Y5166753D01*
X3456940Y5249811D02*
G01*
X3456940Y5254891D01*
X3462020Y5265305D01*
X3467100Y5270639D01*
X3477513Y5275719D01*
X3498341Y5275719D01*
X3508756Y5270639D01*
X3514090Y5265305D01*
X3519170Y5254891D01*
X3519170Y5244477D01*
X3514090Y5234063D01*
X3503675Y5218569D01*
X3451606Y5166753D01*
X3524250Y5166753D01*
X1327150Y5313819D02*
G01*
X1327150Y5235841D01*
X1332229Y5220347D01*
X1342644Y5209933D01*
X1358392Y5204853D01*
X1368805Y5204853D01*
X1384300Y5209933D01*
X1394713Y5220347D01*
X1399794Y5235841D01*
X1399794Y5313819D01*
X1506981Y5298325D02*
G01*
X1496568Y5308739D01*
X1480820Y5313819D01*
X1460245Y5313819D01*
X1444497Y5308739D01*
X1434084Y5298325D01*
X1434084Y5287911D01*
X1439418Y5277497D01*
X1444497Y5272163D01*
X1454912Y5267083D01*
X1486154Y5256669D01*
X1496568Y5251589D01*
X1501647Y5246255D01*
X1506981Y5235841D01*
X1506981Y5220347D01*
X1496568Y5209933D01*
X1480820Y5204853D01*
X1460245Y5204853D01*
X1444497Y5209933D01*
X1434084Y5220347D01*
X1541271Y5313819D02*
G01*
X1541271Y5204853D01*
X1541271Y5313819D02*
G01*
X1588007Y5313819D01*
X1603502Y5308739D01*
X1608836Y5303405D01*
X1613915Y5292991D01*
X1613915Y5282577D01*
X1608836Y5272163D01*
X1603502Y5267083D01*
X1588007Y5262003D01*
X1541271Y5262003D02*
G01*
X1588007Y5262003D01*
X1603502Y5256669D01*
X1608836Y5251589D01*
X1613915Y5241175D01*
X1613915Y5225427D01*
X1608836Y5215013D01*
X1603502Y5209933D01*
X1588007Y5204853D01*
X1541271Y5204853D01*
X1658620Y5313819D02*
G01*
X1715770Y5313819D01*
X1684528Y5272163D01*
X1700276Y5272163D01*
X1710689Y5267083D01*
X1715770Y5262003D01*
X1720850Y5246255D01*
X1720850Y5235841D01*
X1715770Y5220347D01*
X1705355Y5209933D01*
X1689862Y5204853D01*
X1674113Y5204853D01*
X1658620Y5209933D01*
X1653539Y5215013D01*
X1648205Y5225427D01*
X5781001Y7113015D02*
G01*
X5781001Y7004050D01*
X5781001Y7113015D02*
G01*
X5817323Y7113015D01*
X5833071Y7107936D01*
X5843231Y7097521D01*
X5848565Y7087108D01*
X5853645Y7071360D01*
X5853645Y7045452D01*
X5848565Y7029958D01*
X5843231Y7019544D01*
X5833071Y7009129D01*
X5817323Y7004050D01*
X5781001Y7004050D01*
X5887935Y7092187D02*
G01*
X5898349Y7097521D01*
X5914097Y7113015D01*
X5914097Y7004050D01*
G36*
X5695899Y6950964D02*
G01*
X5695899Y6915708D01*
X5726379Y6915708D01*
X5726379Y6950964D01*
G37*
G36*
X5695899Y6825691D02*
G01*
X5695899Y6790436D01*
X5726379Y6790436D01*
X5726379Y6825691D01*
G37*
D11*
X1990925Y6134798D02*
G01*
X1910923Y6134798D01*
X2021911Y6245773D02*
G01*
X2021911Y6165776D01*
X1879945Y6245773D02*
G01*
X1879945Y6165776D01*
X2022492Y6303363D02*
G01*
X2022492Y6383362D01*
X1991509Y6414345D02*
G01*
X1911512Y6414345D01*
X1880532Y6303363D02*
G01*
X1880532Y6383362D01*
X4528350Y5640677D02*
G01*
X4528350Y5560674D01*
X4417374Y5671662D02*
G01*
X4497372Y5671662D01*
X4417374Y5529696D02*
G01*
X4497372Y5529696D01*
X4359785Y5672244D02*
G01*
X4279785Y5672244D01*
X4248802Y5641261D02*
G01*
X4248802Y5561263D01*
X4359785Y5530283D02*
G01*
X4279785Y5530283D01*
X4833150Y6237577D02*
G01*
X4833150Y6157574D01*
X4722174Y6268562D02*
G01*
X4802172Y6268562D01*
X4722174Y6126596D02*
G01*
X4802172Y6126596D01*
X4664585Y6269144D02*
G01*
X4584585Y6269144D01*
X4553602Y6238161D02*
G01*
X4553602Y6158163D01*
X4664585Y6127183D02*
G01*
X4584585Y6127183D01*
X5290350Y6555077D02*
G01*
X5290350Y6475074D01*
X5179374Y6586062D02*
G01*
X5259372Y6586062D01*
X5179374Y6444096D02*
G01*
X5259372Y6444096D01*
X5121785Y6586644D02*
G01*
X5041785Y6586644D01*
X5010802Y6555661D02*
G01*
X5010802Y6475663D01*
X5121785Y6444683D02*
G01*
X5041785Y6444683D01*
X5964961Y5920077D02*
G01*
X5964961Y5840074D01*
X5853986Y5951062D02*
G01*
X5933983Y5951062D01*
X5853986Y5809096D02*
G01*
X5933983Y5809096D01*
X5796396Y5951644D02*
G01*
X5716397Y5951644D01*
X5685414Y5920661D02*
G01*
X5685414Y5840663D01*
X5796396Y5809683D02*
G01*
X5716397Y5809683D01*
D10*
X3029788Y5639180D02*
G01*
X2675509Y5639180D01*
X2675509Y6654419D01*
X3029788Y6654419D01*
X3029788Y5639180D01*
D11*
X6980148Y6045200D02*
G01*
X6980148Y7213600D01*
X8454948Y7239000D02*
G01*
X6473748Y7239000D01*
X6473748Y6019800D02*
G01*
X8454948Y6019800D01*
X8454948Y6019800D02*
G01*
X8454948Y7239000D01*
X6473748Y6019800D02*
G01*
X6473748Y6176286D01*
X6473748Y6382514D02*
G01*
X6473748Y6426299D01*
X6473748Y6832526D02*
G01*
X6473748Y6876287D01*
X6473748Y7082515D02*
G01*
X6473748Y7239000D01*
X7743748Y6883412D02*
G01*
X7743748Y7137412D01*
X7997748Y7137412D01*
X7997748Y6883412D01*
X7743748Y6883412D01*
X7743748Y6121412D02*
G01*
X7743748Y6375412D01*
X7997748Y6375412D01*
X7997748Y6121412D01*
X7743748Y6121412D01*
X3515573Y4344276D02*
G01*
X3457158Y3838811D01*
X3271735Y3838811D01*
X3213569Y4343511D01*
X3246846Y4346054D01*
X3312373Y3889611D01*
X3406358Y3889611D01*
X3485093Y4349353D01*
X3515573Y4344276D01*
X3256493Y4252833D02*
G01*
X3464773Y4252833D01*
X3289515Y4077576D02*
G01*
X3434293Y4077576D01*
X2842473Y4072496D02*
G01*
X2987258Y4072496D01*
X2809458Y4247753D02*
G01*
X3017735Y4247753D01*
X3068535Y4339196D02*
G01*
X3038058Y4344276D01*
X2959315Y3884533D01*
X2865335Y3884533D01*
X2799803Y4340969D01*
X2766527Y4338434D01*
X2824693Y3833733D01*
X3010115Y3833733D01*
X3068535Y4339196D01*
X2433548Y5101196D02*
G01*
X3855948Y5101196D01*
X3855948Y3678796D01*
X2433548Y3678796D01*
X2433548Y5101196D01*
X1712173Y4382376D02*
G01*
X1653758Y3876911D01*
X1468335Y3876911D01*
X1410169Y4381611D01*
X1443446Y4384154D01*
X1508973Y3927711D01*
X1602958Y3927711D01*
X1681693Y4387453D01*
X1712173Y4382376D01*
X1453093Y4290933D02*
G01*
X1661373Y4290933D01*
X1486115Y4115676D02*
G01*
X1630893Y4115676D01*
X1039073Y4110596D02*
G01*
X1183858Y4110596D01*
X1006058Y4285853D02*
G01*
X1214335Y4285853D01*
X1265135Y4377296D02*
G01*
X1234658Y4382376D01*
X1155915Y3922633D01*
X1061935Y3922633D01*
X996403Y4379069D01*
X963127Y4376534D01*
X1021293Y3871833D01*
X1206715Y3871833D01*
X1265135Y4377296D01*
X630148Y5139296D02*
G01*
X2052548Y5139296D01*
X2052548Y3716896D01*
X630148Y3716896D01*
X630148Y5139296D01*
D12*
X5894024Y6798078D02*
G01*
X5894024Y6818701D01*
X5894024Y6943321D02*
G01*
X5894024Y6923699D01*
D10*
X5718779Y6943321D02*
G01*
X5894024Y6943321D01*
X5718779Y6798078D02*
G01*
X5894024Y6798078D01*
X5759223Y6943321D02*
G01*
X5759223Y6798078D01*
D11*
G75*
G01*
X1991510Y6414351D02*
G02*
X2022493Y6383368I0J-30983D01*
G75*
G01*
X1880527Y6383368D02*
G02*
X1911513Y6414351I30983J0D01*
G75*
G01*
X2021911Y6165781D02*
G02*
X1990926Y6134799I-30983J0D01*
G75*
G01*
X1910928Y6134799D02*
G02*
X1879945Y6165781I0J30982D01*
G75*
G01*
X4248798Y5641261D02*
G02*
X4279781Y5672244I30983J0D01*
G75*
G01*
X4279781Y5530278D02*
G02*
X4248798Y5561264I0J30983D01*
G75*
G01*
X4497367Y5671663D02*
G02*
X4528350Y5640677I0J-30983D01*
G75*
G01*
X4528350Y5560680D02*
G02*
X4497367Y5529697I-30983J0D01*
G75*
G01*
X4553598Y6238161D02*
G02*
X4584581Y6269144I30983J0D01*
G75*
G01*
X4584581Y6127178D02*
G02*
X4553598Y6158164I0J30983D01*
G75*
G01*
X4802167Y6268563D02*
G02*
X4833150Y6237577I0J-30983D01*
G75*
G01*
X4833150Y6157580D02*
G02*
X4802167Y6126597I-30983J0D01*
G75*
G01*
X5010798Y6555661D02*
G02*
X5041781Y6586644I30983J0D01*
G75*
G01*
X5041781Y6444678D02*
G02*
X5010798Y6475664I0J30983D01*
G75*
G01*
X5259367Y6586063D02*
G02*
X5290350Y6555077I0J-30983D01*
G75*
G01*
X5290350Y6475080D02*
G02*
X5259367Y6444097I-30983J0D01*
G75*
G01*
X5685409Y5920661D02*
G02*
X5716392Y5951644I30983J0D01*
G75*
G01*
X5716392Y5809678D02*
G02*
X5685409Y5840664I0J30983D01*
G75*
G01*
X5933978Y5951063D02*
G02*
X5964961Y5920077I0J-30983D01*
G75*
G01*
X5964961Y5840080D02*
G02*
X5933978Y5809097I-30983J0D01*
D13*
G75*
G01
X2969565Y5702300D02*
G03X2969565Y5702300I-15011J0D01*
G75*
G01
X3154909Y5629072D02*
G03X3154909Y5629072I-15011J0D01*
M02*
