G04 Layer: BottomSilkscreenLayer*
G04 EasyEDA v6.5.44, 2024-07-15 21:32:29*
G04 Gerber Generator version 0.2*
G04 Scale: 100 percent, Rotated: No, Reflected: No *
G04 Dimensions in millimeters *
G04 leading zeros omitted , absolute positions ,4 integer and 5 decimal *
%FSLAX45Y45*%
%MOMM*%

%ADD10C,0.0001*%

%LPD*%
G36*
X890930Y7175906D02*
G01*
X885698Y7175144D01*
X859739Y7173874D01*
X848461Y7171639D01*
X837082Y7170369D01*
X832408Y7168845D01*
X821994Y7167270D01*
X817016Y7165340D01*
X810463Y7164425D01*
X805434Y7162190D01*
X798931Y7161225D01*
X795375Y7159294D01*
X788466Y7157770D01*
X785266Y7155891D01*
X779119Y7154672D01*
X777900Y7153554D01*
X775563Y7152386D01*
X772058Y7151878D01*
X769213Y7149896D01*
X763676Y7148423D01*
X762355Y7147306D01*
X760069Y7146137D01*
X757377Y7145629D01*
X753770Y7143242D01*
X751128Y7142784D01*
X746048Y7139736D01*
X744931Y7139736D01*
X739902Y7136587D01*
X738733Y7136587D01*
X733653Y7133437D01*
X732383Y7133437D01*
X729843Y7131253D01*
X725525Y7128764D01*
X721258Y7126630D01*
X718921Y7124801D01*
X715467Y7123175D01*
X707694Y7117689D01*
X706831Y7117689D01*
X703427Y7115048D01*
X700176Y7113371D01*
X699566Y7112304D01*
X697230Y7110831D01*
X690219Y7105599D01*
X687730Y7104329D01*
X686917Y7102754D01*
X684022Y7101281D01*
X678484Y7096506D01*
X675487Y7094575D01*
X670306Y7089597D01*
X665835Y7086041D01*
X652729Y7073442D01*
X644093Y7064705D01*
X632206Y7051802D01*
X630783Y7049465D01*
X625856Y7044334D01*
X618286Y7034123D01*
X613765Y7028637D01*
X612140Y7025436D01*
X610819Y7024319D01*
X606755Y7018375D01*
X602589Y7011670D01*
X600760Y7009333D01*
X598170Y7005015D01*
X596696Y7001865D01*
X595274Y7000697D01*
X593090Y6995972D01*
X591464Y6993636D01*
X588060Y6987743D01*
X588060Y6986524D01*
X584962Y6981444D01*
X584962Y6980580D01*
X582523Y6977227D01*
X581101Y6972960D01*
X579526Y6970928D01*
X578408Y6967067D01*
X575614Y6962546D01*
X575614Y6961327D01*
X573278Y6957568D01*
X572058Y6952742D01*
X569874Y6949186D01*
X569010Y6944868D01*
X567080Y6941870D01*
X565658Y6936231D01*
X563626Y6931863D01*
X562559Y6926783D01*
X560527Y6922414D01*
X559409Y6916928D01*
X557479Y6911848D01*
X556514Y6905904D01*
X554431Y6900011D01*
X553110Y6890664D01*
X551535Y6886651D01*
X550468Y6878421D01*
X549656Y6874154D01*
X548436Y6870141D01*
X546557Y6849973D01*
X546100Y6848703D01*
X544626Y6848703D01*
X544626Y6779514D01*
X546150Y6779514D01*
X546963Y6776262D01*
X548081Y6760819D01*
X550113Y6752539D01*
X551637Y6740906D01*
X553466Y6735267D01*
X554380Y6728155D01*
X556310Y6723075D01*
X557733Y6715912D01*
X559409Y6712153D01*
X560882Y6704330D01*
X562762Y6701028D01*
X563981Y6694881D01*
X565912Y6691579D01*
X566420Y6688277D01*
X568655Y6684721D01*
X569772Y6679641D01*
X572516Y6674408D01*
X572516Y6672732D01*
X575157Y6668414D01*
X576478Y6663334D01*
X577951Y6661454D01*
X579526Y6657086D01*
X581050Y6655155D01*
X582625Y6650786D01*
X584149Y6648856D01*
X585622Y6644792D01*
X588416Y6640575D01*
X588416Y6639610D01*
X591159Y6635750D01*
X591159Y6634937D01*
X594969Y6628688D01*
X596595Y6626555D01*
X597814Y6623608D01*
X600456Y6620103D01*
X600456Y6619036D01*
X603046Y6616090D01*
X604012Y6614109D01*
X606856Y6609537D01*
X609752Y6606489D01*
X609752Y6605371D01*
X612800Y6601510D01*
X614019Y6599021D01*
X615086Y6598412D01*
X616915Y6595516D01*
X625856Y6583832D01*
X630428Y6579108D01*
X631850Y6576771D01*
X644093Y6563461D01*
X655777Y6551625D01*
X668528Y6539534D01*
X670052Y6538671D01*
X676656Y6532626D01*
X678434Y6531711D01*
X683666Y6527139D01*
X685952Y6525666D01*
X692200Y6520688D01*
X696925Y6517284D01*
X699211Y6516065D01*
X700278Y6514795D01*
X703834Y6512864D01*
X707694Y6510172D01*
X710031Y6508242D01*
X712724Y6506870D01*
X715467Y6504736D01*
X718159Y6503670D01*
X721258Y6501434D01*
X725932Y6498640D01*
X729843Y6497116D01*
X731672Y6495186D01*
X734618Y6494373D01*
X736904Y6492392D01*
X739902Y6491173D01*
X743407Y6488887D01*
X747115Y6487769D01*
X749960Y6485788D01*
X753821Y6484924D01*
X756767Y6482994D01*
X761136Y6481318D01*
X763778Y6479489D01*
X767130Y6478981D01*
X769569Y6477508D01*
X769569Y6475882D01*
X808736Y6475882D01*
X808736Y6477304D01*
X810717Y6480302D01*
X811580Y6482791D01*
X812038Y6603136D01*
X814120Y6611569D01*
X814984Y6618376D01*
X817524Y6625132D01*
X818083Y6628282D01*
X820013Y6631330D01*
X821131Y6634530D01*
X823366Y6638137D01*
X824280Y6641084D01*
X833526Y6653123D01*
X833526Y6653987D01*
X831799Y6655206D01*
X826922Y6655206D01*
X819403Y6656425D01*
X815492Y6657594D01*
X805434Y6658813D01*
X798068Y6661099D01*
X791057Y6662013D01*
X787044Y6663893D01*
X779830Y6665366D01*
X776732Y6666992D01*
X771347Y6668262D01*
X768197Y6670090D01*
X763524Y6671411D01*
X759968Y6673697D01*
X757326Y6674205D01*
X754989Y6675374D01*
X753821Y6676390D01*
X749808Y6677964D01*
X739902Y6683857D01*
X733653Y6688277D01*
X731418Y6689648D01*
X726338Y6693560D01*
X719734Y6699453D01*
X709726Y6709714D01*
X708507Y6711645D01*
X703224Y6718147D01*
X702157Y6720840D01*
X700430Y6721754D01*
X699312Y6724446D01*
X696620Y6728053D01*
X696620Y6728968D01*
X693521Y6734098D01*
X693521Y6735267D01*
X690422Y6740347D01*
X690422Y6741515D01*
X687374Y6746646D01*
X686562Y6750862D01*
X684682Y6754114D01*
X683768Y6758838D01*
X681634Y6763562D01*
X680415Y6770268D01*
X678840Y6774281D01*
X677164Y6785203D01*
X675741Y6790334D01*
X675335Y6792671D01*
X674471Y6806844D01*
X673709Y6812889D01*
X672541Y6833971D01*
X675589Y6863842D01*
X677316Y6868159D01*
X678434Y6875272D01*
X680364Y6879336D01*
X681583Y6884670D01*
X683463Y6887667D01*
X684682Y6892544D01*
X686612Y6895592D01*
X687730Y6898843D01*
X689660Y6901789D01*
X691591Y6905904D01*
X695858Y6912203D01*
X697534Y6915353D01*
X702462Y6921195D01*
X702462Y6921855D01*
X709117Y6929932D01*
X708660Y6934098D01*
X706628Y6937959D01*
X705154Y6946950D01*
X703580Y6951929D01*
X702716Y6959803D01*
X702716Y6984949D01*
X704037Y6993788D01*
X705459Y6999122D01*
X706424Y7006234D01*
X708304Y7011314D01*
X709523Y7017207D01*
X710895Y7019645D01*
X712571Y7024776D01*
X713943Y7026046D01*
X718159Y7026960D01*
X730961Y7026503D01*
X737565Y7025284D01*
X741426Y7023811D01*
X748030Y7022846D01*
X751890Y7020661D01*
X756158Y7019696D01*
X759256Y7017918D01*
X763524Y7016546D01*
X768959Y7013854D01*
X770128Y7013854D01*
X775157Y7010704D01*
X776325Y7010704D01*
X781354Y7007606D01*
X782167Y7007606D01*
X786536Y7004659D01*
X792886Y7001103D01*
X795324Y6999325D01*
X798982Y6997496D01*
X801522Y6995515D01*
X804265Y6994093D01*
X806602Y6992162D01*
X810818Y6989470D01*
X813968Y6989572D01*
X817168Y6991045D01*
X820521Y6991756D01*
X825601Y6992366D01*
X831392Y6994499D01*
X841857Y6995871D01*
X846531Y6997395D01*
X866190Y6999325D01*
X875639Y7001052D01*
X922934Y7001103D01*
X938428Y6998970D01*
X954328Y6997242D01*
X959408Y6995769D01*
X969467Y6994550D01*
X976071Y6992264D01*
X980338Y6991807D01*
X989837Y6989013D01*
X992936Y6991858D01*
X994003Y6991858D01*
X997458Y6994550D01*
X1000353Y6995769D01*
X1002436Y6997395D01*
X1007821Y7000900D01*
X1010970Y7002373D01*
X1013663Y7004456D01*
X1014476Y7004456D01*
X1019505Y7007606D01*
X1020673Y7007606D01*
X1025702Y7010704D01*
X1026871Y7010704D01*
X1031900Y7013854D01*
X1033119Y7013854D01*
X1036929Y7016343D01*
X1042263Y7017766D01*
X1045108Y7019696D01*
X1051153Y7020966D01*
X1054404Y7022896D01*
X1061720Y7024166D01*
X1065276Y7025589D01*
X1071473Y7026554D01*
X1086307Y7026656D01*
X1087882Y7025233D01*
X1089914Y7021271D01*
X1091488Y7014921D01*
X1093063Y7011822D01*
X1094181Y7005421D01*
X1096416Y6998716D01*
X1097280Y6988098D01*
X1098499Y6979615D01*
X1098092Y6960209D01*
X1097330Y6955485D01*
X1096416Y6946036D01*
X1094486Y6940905D01*
X1093368Y6935419D01*
X1091742Y6930644D01*
X1094536Y6926224D01*
X1096111Y6925360D01*
X1102664Y6916420D01*
X1103782Y6913676D01*
X1105458Y6912762D01*
X1106627Y6909917D01*
X1108456Y6907479D01*
X1109878Y6904329D01*
X1112367Y6900468D01*
X1112367Y6899249D01*
X1115466Y6894118D01*
X1115466Y6892899D01*
X1117803Y6889191D01*
X1119022Y6883908D01*
X1120952Y6879590D01*
X1122476Y6873036D01*
X1123950Y6869734D01*
X1125626Y6859524D01*
X1126744Y6855206D01*
X1127861Y6843775D01*
X1127912Y6820763D01*
X1127048Y6804863D01*
X1125982Y6799935D01*
X1124102Y6783222D01*
X1122121Y6776923D01*
X1121156Y6769862D01*
X1119327Y6765696D01*
X1118158Y6758838D01*
X1116685Y6756298D01*
X1114399Y6748881D01*
X1112367Y6745427D01*
X1112367Y6744258D01*
X1110081Y6740601D01*
X1108811Y6736232D01*
X1107033Y6734048D01*
X1105001Y6729730D01*
X1102410Y6725208D01*
X1100836Y6723481D01*
X1099464Y6720687D01*
X1093978Y6713372D01*
X1091590Y6710730D01*
X1089507Y6707581D01*
X1079804Y6697675D01*
X1075740Y6695033D01*
X1070457Y6689852D01*
X1069492Y6689852D01*
X1064971Y6686296D01*
X1064361Y6686296D01*
X1061110Y6683552D01*
X1060196Y6683552D01*
X1056081Y6680403D01*
X1055166Y6680403D01*
X1050137Y6677253D01*
X1048969Y6677253D01*
X1043940Y6674103D01*
X1042720Y6674103D01*
X1039063Y6671716D01*
X1035405Y6670903D01*
X1029512Y6668211D01*
X1024178Y6666992D01*
X1021029Y6665163D01*
X1014272Y6663893D01*
X1011224Y6662318D01*
X1001725Y6660642D01*
X998169Y6659270D01*
X985012Y6657594D01*
X980186Y6656070D01*
X968603Y6654800D01*
X967181Y6653733D01*
X969467Y6650837D01*
X972261Y6647942D01*
X973582Y6645605D01*
X977798Y6639712D01*
X979779Y6635343D01*
X981710Y6632092D01*
X982878Y6627571D01*
X984351Y6625132D01*
X986028Y6617258D01*
X987907Y6611620D01*
X987907Y6609334D01*
X988771Y6606641D01*
X989837Y6605422D01*
X993140Y6604406D01*
X997000Y6602171D01*
X1002436Y6601206D01*
X1007160Y6599021D01*
X1015237Y6598158D01*
X1024686Y6596227D01*
X1032154Y6596227D01*
X1048562Y6599021D01*
X1052474Y6600952D01*
X1057097Y6602171D01*
X1060653Y6604508D01*
X1063345Y6605371D01*
X1068781Y6608978D01*
X1069390Y6609994D01*
X1071880Y6611264D01*
X1083411Y6622796D01*
X1088898Y6630466D01*
X1089863Y6631431D01*
X1091488Y6635292D01*
X1093774Y6637934D01*
X1093774Y6638645D01*
X1099972Y6646672D01*
X1099972Y6647230D01*
X1110132Y6657746D01*
X1113078Y6659727D01*
X1119022Y6664299D01*
X1121105Y6665264D01*
X1124864Y6667804D01*
X1126185Y6667804D01*
X1129792Y6670141D01*
X1142339Y6672986D01*
X1150264Y6673443D01*
X1160932Y6670497D01*
X1161592Y6670141D01*
X1163523Y6666179D01*
X1161897Y6661302D01*
X1153922Y6653428D01*
X1149807Y6651142D01*
X1141577Y6645503D01*
X1134313Y6637883D01*
X1129030Y6631431D01*
X1121867Y6620611D01*
X1118412Y6614261D01*
X1116634Y6611772D01*
X1114806Y6607759D01*
X1112367Y6603949D01*
X1112367Y6602679D01*
X1110488Y6598767D01*
X1108913Y6594144D01*
X1106627Y6590538D01*
X1106119Y6588556D01*
X1102258Y6582105D01*
X1097940Y6576466D01*
X1092301Y6570472D01*
X1083360Y6564172D01*
X1078128Y6560870D01*
X1076858Y6560870D01*
X1073200Y6558483D01*
X1068070Y6557314D01*
X1062939Y6555028D01*
X1054404Y6553758D01*
X1049375Y6552234D01*
X1040434Y6551422D01*
X1020419Y6551422D01*
X1009040Y6552234D01*
X1001572Y6553758D01*
X996137Y6554520D01*
X992174Y6554673D01*
X990650Y6553301D01*
X989787Y6487058D01*
X991412Y6479641D01*
X992936Y6477508D01*
X992936Y6475882D01*
X1032103Y6475882D01*
X1032103Y6477457D01*
X1034999Y6478930D01*
X1039012Y6479794D01*
X1042720Y6482181D01*
X1043686Y6482181D01*
X1048562Y6484823D01*
X1051712Y6485788D01*
X1072032Y6496050D01*
X1072032Y6496710D01*
X1081582Y6501638D01*
X1084986Y6504228D01*
X1085951Y6504228D01*
X1101496Y6514693D01*
X1112520Y6522516D01*
X1115060Y6523888D01*
X1115872Y6525463D01*
X1118768Y6526936D01*
X1124204Y6531813D01*
X1126947Y6533235D01*
X1135075Y6540957D01*
X1137412Y6542430D01*
X1155649Y6560261D01*
X1170279Y6576009D01*
X1172057Y6578752D01*
X1176934Y6583832D01*
X1184503Y6594094D01*
X1189075Y6599580D01*
X1190650Y6602780D01*
X1192022Y6603898D01*
X1194003Y6607098D01*
X1198473Y6613347D01*
X1200150Y6616496D01*
X1202029Y6618833D01*
X1204671Y6623151D01*
X1206144Y6626352D01*
X1207516Y6627520D01*
X1209751Y6632194D01*
X1214780Y6640474D01*
X1214780Y6641744D01*
X1217879Y6646468D01*
X1217879Y6647230D01*
X1220317Y6651091D01*
X1221384Y6654190D01*
X1223619Y6657797D01*
X1224534Y6661302D01*
X1227175Y6665671D01*
X1227175Y6666839D01*
X1229868Y6671157D01*
X1230731Y6675475D01*
X1232916Y6679031D01*
X1233779Y6683349D01*
X1235760Y6686346D01*
X1237132Y6691985D01*
X1239164Y6696354D01*
X1240231Y6701434D01*
X1242263Y6705803D01*
X1243431Y6711238D01*
X1245311Y6716369D01*
X1246276Y6722262D01*
X1248410Y6728155D01*
X1249324Y6735267D01*
X1251204Y6740906D01*
X1252880Y6752945D01*
X1254404Y6758076D01*
X1256233Y6778193D01*
X1256741Y6779514D01*
X1258214Y6779514D01*
X1258214Y6848703D01*
X1256690Y6848703D01*
X1255877Y6851954D01*
X1254709Y6867245D01*
X1252423Y6877202D01*
X1251559Y6886549D01*
X1249426Y6892544D01*
X1248410Y6900011D01*
X1246530Y6905142D01*
X1245057Y6912711D01*
X1243126Y6917334D01*
X1241907Y6923836D01*
X1240028Y6927138D01*
X1238808Y6933285D01*
X1236980Y6936587D01*
X1236065Y6940905D01*
X1234236Y6943699D01*
X1232966Y6948779D01*
X1231087Y6952234D01*
X1229868Y6956247D01*
X1228039Y6959092D01*
X1226312Y6964883D01*
X1224889Y6966762D01*
X1223264Y6971131D01*
X1221790Y6973062D01*
X1220165Y6977430D01*
X1218692Y6979361D01*
X1217168Y6983374D01*
X1214374Y6987590D01*
X1214374Y6988505D01*
X1211681Y6992366D01*
X1211681Y6993280D01*
X1207871Y6999528D01*
X1206195Y7001611D01*
X1205077Y7004456D01*
X1202334Y7008063D01*
X1202334Y7009079D01*
X1200200Y7011670D01*
X1195984Y7018680D01*
X1193038Y7021728D01*
X1193038Y7022795D01*
X1190040Y7026656D01*
X1188770Y7029196D01*
X1187754Y7029805D01*
X1185976Y7032447D01*
X1184452Y7034123D01*
X1176934Y7044334D01*
X1172413Y7049058D01*
X1170990Y7051446D01*
X1155649Y7067905D01*
X1150162Y7073442D01*
X1137412Y7085685D01*
X1135075Y7087209D01*
X1126947Y7094880D01*
X1123696Y7097064D01*
X1114501Y7104583D01*
X1112570Y7105599D01*
X1102868Y7112965D01*
X1094536Y7118350D01*
X1092809Y7119975D01*
X1088542Y7122007D01*
X1086104Y7123785D01*
X1079093Y7127748D01*
X1077264Y7129475D01*
X1073810Y7130694D01*
X1070305Y7132929D01*
X1067409Y7133894D01*
X1064209Y7136587D01*
X1062990Y7136587D01*
X1057910Y7139635D01*
X1055217Y7140143D01*
X1052220Y7142124D01*
X1049020Y7143292D01*
X1045464Y7145528D01*
X1041450Y7146747D01*
X1038098Y7148677D01*
X1034643Y7149592D01*
X1032256Y7151014D01*
X1024534Y7153605D01*
X1022146Y7155027D01*
X1016762Y7156196D01*
X1012901Y7158177D01*
X1007160Y7159396D01*
X1004569Y7161022D01*
X997762Y7162190D01*
X993140Y7164171D01*
X986129Y7165340D01*
X978763Y7167625D01*
X974496Y7168083D01*
X968552Y7169200D01*
X964031Y7170724D01*
X955497Y7171588D01*
X949706Y7172452D01*
X947369Y7173163D01*
X938072Y7174280D01*
X915974Y7175195D01*
X912825Y7175804D01*
G37*
G36*
X2102053Y7189012D02*
G01*
X2088184Y7187946D01*
X2077466Y7183170D01*
X2064207Y7173163D01*
X2059127Y7167118D01*
X2054606Y7164730D01*
X2004720Y7164730D01*
X1977253Y7163003D01*
X2079091Y7163003D01*
X2083562Y7167778D01*
X2093518Y7171994D01*
X2100986Y7173112D01*
X2114905Y7170064D01*
X2120087Y7166254D01*
X2124049Y7154672D01*
X2125370Y7143496D01*
X2122627Y7140194D01*
X2112772Y7146036D01*
X2100986Y7152081D01*
X2081733Y7159548D01*
X2079091Y7163003D01*
X1977253Y7163003D01*
X1938426Y7160514D01*
X1905254Y7157262D01*
X1879600Y7154164D01*
X1865731Y7152792D01*
X1831187Y7147712D01*
X1812239Y7143343D01*
X1801520Y7140092D01*
X1787652Y7134453D01*
X1770125Y7124293D01*
X1754479Y7111847D01*
X1734261Y7090714D01*
X1707286Y7054545D01*
X1681683Y7016191D01*
X1663446Y6987438D01*
X1647545Y6959803D01*
X1634896Y6946341D01*
X1615440Y6931812D01*
X1575155Y6904786D01*
X1551279Y6887159D01*
X1534668Y6873494D01*
X1501038Y6839407D01*
X1479550Y6814921D01*
X1463548Y6794703D01*
X1449578Y6775551D01*
X1442008Y6763816D01*
X1432458Y6747865D01*
X1424482Y6731304D01*
X1414018Y6703110D01*
X1410411Y6694576D01*
X1402080Y6676898D01*
X1402080Y6676034D01*
X1386484Y6644538D01*
X1368196Y6603034D01*
X1363675Y6590233D01*
X1359357Y6574281D01*
X1357503Y6558280D01*
X1373835Y6558280D01*
X1376527Y6575348D01*
X1384046Y6598767D01*
X1393799Y6621119D01*
X1423212Y6682892D01*
X1430070Y6698843D01*
X1438554Y6722313D01*
X1450340Y6746748D01*
X1472539Y6779768D01*
X1496923Y6810146D01*
X1511655Y6826656D01*
X1540560Y6856222D01*
X1560779Y6874205D01*
X1586585Y6892798D01*
X1627225Y6920128D01*
X1647545Y6935520D01*
X1659432Y6948017D01*
X1671828Y6969353D01*
X1690166Y6999173D01*
X1716278Y7038543D01*
X1727555Y7054545D01*
X1736140Y7066229D01*
X1755902Y7090816D01*
X1772361Y7105650D01*
X1783334Y7113371D01*
X1798218Y7121296D01*
X1812239Y7126274D01*
X1829511Y7130643D01*
X1862480Y7135825D01*
X1902053Y7140194D01*
X1934159Y7143496D01*
X1991918Y7147763D01*
X2047544Y7148626D01*
X2062683Y7146899D01*
X2078532Y7143343D01*
X2090318Y7139025D01*
X2107082Y7130592D01*
X2123084Y7119874D01*
X2140559Y7105802D01*
X2166213Y7083348D01*
X2182469Y7067296D01*
X2193594Y7044944D01*
X2194814Y7037273D01*
X2191105Y7034275D01*
X2183028Y7026757D01*
X2180437Y7017258D01*
X2181809Y7005777D01*
X2186178Y6999681D01*
X2192324Y6999681D01*
X2193645Y7001814D01*
X2200097Y7005167D01*
X2204008Y7001662D01*
X2206345Y6984238D01*
X2208326Y6954723D01*
X2249322Y6913473D01*
X2248408Y6910781D01*
X2213813Y6910527D01*
X2204720Y6909104D01*
X2191359Y6904736D01*
X2188972Y6900316D01*
X2189988Y6891375D01*
X2198116Y6874560D01*
X2211171Y6861657D01*
X2221636Y6855866D01*
X2232812Y6852666D01*
X2236774Y6848297D01*
X2232558Y6845046D01*
X2225040Y6841693D01*
X2196185Y6840778D01*
X2117293Y6845350D01*
X2104186Y6849719D01*
X2092452Y6856272D01*
X2079599Y6866381D01*
X2062886Y6883603D01*
X2056587Y6883603D01*
X2052320Y6879336D01*
X2052320Y6872020D01*
X2062683Y6859676D01*
X2075434Y6848551D01*
X2083866Y6842506D01*
X2096719Y6835038D01*
X2112772Y6829094D01*
X2149957Y6827367D01*
X2154377Y6822948D01*
X2157374Y6702044D01*
X2157679Y6575348D01*
X2154834Y6532727D01*
X2151837Y6515404D01*
X2148433Y6473088D01*
X2146452Y6443268D01*
X2145152Y6315862D01*
X2161692Y6315862D01*
X2163978Y6318148D01*
X2168398Y6317996D01*
X2178253Y6313373D01*
X2184400Y6310884D01*
X2210104Y6301181D01*
X2226106Y6296050D01*
X2252878Y6289497D01*
X2286000Y6282080D01*
X2299919Y6278575D01*
X2312771Y6274358D01*
X2329840Y6265011D01*
X2342032Y6256883D01*
X2346706Y6250940D01*
X2346706Y6245758D01*
X2343200Y6240475D01*
X2336495Y6237020D01*
X2311704Y6235903D01*
X2292654Y6238443D01*
X2271064Y6243675D01*
X2243226Y6251244D01*
X2212238Y6261506D01*
X2171090Y6276543D01*
X2164689Y6279845D01*
X2162759Y6283553D01*
X2161692Y6315862D01*
X2145152Y6315862D01*
X2145080Y6309106D01*
X2147519Y6251143D01*
X2151684Y6216192D01*
X2156155Y6198717D01*
X2162403Y6185611D01*
X2169729Y6175451D01*
X2192274Y6175451D01*
X2193645Y6177584D01*
X2198319Y6177330D01*
X2215438Y6172149D01*
X2244293Y6165037D01*
X2305253Y6155182D01*
X2324404Y6149746D01*
X2339949Y6142126D01*
X2351024Y6132474D01*
X2353919Y6125514D01*
X2353919Y6121247D01*
X2347518Y6113983D01*
X2331313Y6106109D01*
X2313736Y6101588D01*
X2251811Y6132169D01*
X2230424Y6144920D01*
X2211171Y6157823D01*
X2196185Y6170371D01*
X2192274Y6175451D01*
X2169729Y6175451D01*
X2173173Y6170676D01*
X2188311Y6155334D01*
X2202586Y6143802D01*
X2216505Y6134252D01*
X2233625Y6123635D01*
X2257145Y6111189D01*
X2292654Y6093612D01*
X2299919Y6090513D01*
X2309215Y6082487D01*
X2310841Y6078067D01*
X2308860Y6072378D01*
X2300833Y6066840D01*
X2288184Y6062370D01*
X2264613Y6061252D01*
X2246426Y6063691D01*
X2230424Y6068771D01*
X2217166Y6074105D01*
X2197760Y6084976D01*
X2179066Y6098133D01*
X2169464Y6105702D01*
X2121916Y6146088D01*
X2108504Y6157772D01*
X2092655Y6172809D01*
X2074316Y6191504D01*
X2062683Y6206896D01*
X2054606Y6223914D01*
X2048967Y6238849D01*
X2038553Y6269685D01*
X2030069Y6298488D01*
X2012340Y6365392D01*
X2007920Y6370218D01*
X2003653Y6370574D01*
X2001012Y6370320D01*
X1996693Y6366103D01*
X1996693Y6359753D01*
X2005380Y6326174D01*
X2015083Y6291021D01*
X2026767Y6252667D01*
X2033320Y6233515D01*
X2044090Y6206896D01*
X2050135Y6196228D01*
X2064613Y6178448D01*
X2068322Y6171793D01*
X2066391Y6169863D01*
X2028291Y6173724D01*
X1969465Y6173876D01*
X1932025Y6169152D01*
X1890318Y6164732D01*
X1852422Y6160414D01*
X1848154Y6162700D01*
X1846732Y6170371D01*
X1847900Y6244132D01*
X1852371Y6280353D01*
X1855673Y6298488D01*
X1861007Y6321907D01*
X1868627Y6346342D01*
X1878177Y6369812D01*
X1880870Y6374079D01*
X1884680Y6384036D01*
X1880006Y6390589D01*
X1872843Y6390589D01*
X1867204Y6383883D01*
X1861057Y6371844D01*
X1853184Y6351727D01*
X1848307Y6336792D01*
X1842973Y6316573D01*
X1839518Y6301638D01*
X1835150Y6277356D01*
X1830984Y6234582D01*
X1830933Y6158738D01*
X1835302Y6097473D01*
X1839468Y6060998D01*
X1842770Y6039713D01*
X1847138Y6015228D01*
X1852523Y5991758D01*
X1857502Y5974334D01*
X1864868Y5956401D01*
X1872335Y5944920D01*
X1876755Y5937453D01*
X1879498Y5924143D01*
X1876806Y5914034D01*
X1871218Y5908243D01*
X1861870Y5904687D01*
X1842160Y5905957D01*
X1821840Y5910173D01*
X1801520Y5916726D01*
X1779778Y5927598D01*
X1767332Y5937554D01*
X1760321Y5951321D01*
X1753870Y5976874D01*
X1749755Y5997092D01*
X1746351Y6017310D01*
X1742186Y6044996D01*
X1734870Y6099454D01*
X1730502Y6121704D01*
X1725980Y6140856D01*
X1722729Y6151524D01*
X1717192Y6167475D01*
X1710436Y6182410D01*
X1702816Y6194196D01*
X1698447Y6209030D01*
X1693113Y6240932D01*
X1688795Y6278219D01*
X1685493Y6312306D01*
X1683359Y6344259D01*
X1681175Y6369812D01*
X1679193Y6406438D01*
X1676450Y6410756D01*
X1670710Y6413144D01*
X1666189Y6411722D01*
X1662734Y6406438D01*
X1664157Y6377279D01*
X1666290Y6351727D01*
X1669491Y6308039D01*
X1673707Y6265468D01*
X1676857Y6238036D01*
X1681327Y6211163D01*
X1684477Y6197295D01*
X1690065Y6182410D01*
X1691893Y6180378D01*
X1691893Y6178651D01*
X1686712Y6178651D01*
X1685493Y6180632D01*
X1671066Y6189014D01*
X1647799Y6203137D01*
X1647139Y6203137D01*
X1624025Y6216294D01*
X1581200Y6237986D01*
X1564132Y6248095D01*
X1547012Y6259880D01*
X1532026Y6271768D01*
X1515973Y6285484D01*
X1502105Y6298285D01*
X1443278Y6355994D01*
X1417574Y6378143D01*
X1409395Y6386830D01*
X1400708Y6399428D01*
X1391462Y6417970D01*
X1385925Y6433210D01*
X1381963Y6448602D01*
X1377543Y6470954D01*
X1373886Y6505041D01*
X1373835Y6558280D01*
X1357503Y6558280D01*
X1356868Y6552946D01*
X1358188Y6492290D01*
X1361287Y6468821D01*
X1364843Y6448806D01*
X1368704Y6433718D01*
X1374140Y6417716D01*
X1377340Y6409232D01*
X1384757Y6394145D01*
X1392428Y6382207D01*
X1403146Y6369354D01*
X1432560Y6343396D01*
X1493520Y6283756D01*
X1520291Y6260033D01*
X1536344Y6247333D01*
X1556613Y6233363D01*
X1579067Y6220460D01*
X1614373Y6202883D01*
X1662531Y6175349D01*
X1673199Y6168694D01*
X1703425Y6148984D01*
X1707946Y6143244D01*
X1711198Y6132322D01*
X1718513Y6098286D01*
X1723136Y6062065D01*
X1728317Y6024778D01*
X1731670Y6005626D01*
X1737918Y5973673D01*
X1741982Y5956655D01*
X1745589Y5943854D01*
X1751685Y5931103D01*
X1763064Y5919622D01*
X1774799Y5911697D01*
X1787652Y5905144D01*
X1800453Y5899912D01*
X1818639Y5894171D01*
X1841957Y5889040D01*
X1868322Y5889040D01*
X1879854Y5894120D01*
X1888845Y5902198D01*
X1894586Y5912967D01*
X1894535Y5937453D01*
X1889709Y5947968D01*
X1877110Y5968339D01*
X1869693Y5990691D01*
X1865274Y6008827D01*
X1859940Y6035446D01*
X1855571Y6065266D01*
X1852371Y6091885D01*
X1848713Y6140399D01*
X1852269Y6143904D01*
X1866798Y6145682D01*
X1945893Y6154115D01*
X1963013Y6156248D01*
X1992833Y6158280D01*
X2038959Y6156248D01*
X2090166Y6150965D01*
X2095652Y6147409D01*
X2120239Y6125768D01*
X2163013Y6089904D01*
X2182266Y6075781D01*
X2194204Y6068060D01*
X2216759Y6056172D01*
X2234793Y6050076D01*
X2255012Y6045301D01*
X2286000Y6045301D01*
X2303119Y6050076D01*
X2315362Y6056172D01*
X2322931Y6063691D01*
X2326436Y6069126D01*
X2327706Y6087516D01*
X2340559Y6092444D01*
X2356612Y6100318D01*
X2368702Y6112306D01*
X2371242Y6121654D01*
X2369972Y6131255D01*
X2364130Y6142685D01*
X2350973Y6154724D01*
X2333091Y6163716D01*
X2321306Y6168034D01*
X2303119Y6172200D01*
X2267813Y6177737D01*
X2244293Y6181902D01*
X2221839Y6187389D01*
X2189784Y6196736D01*
X2176932Y6200749D01*
X2171242Y6205931D01*
X2168956Y6214364D01*
X2164791Y6244132D01*
X2163521Y6256985D01*
X2166213Y6260592D01*
X2214372Y6243370D01*
X2241092Y6234988D01*
X2259279Y6229604D01*
X2275332Y6225438D01*
X2302052Y6219952D01*
X2334514Y6219901D01*
X2349754Y6224778D01*
X2359050Y6233718D01*
X2363571Y6243878D01*
X2363571Y6254343D01*
X2359355Y6262268D01*
X2355545Y6266688D01*
X2345893Y6274155D01*
X2325573Y6286550D01*
X2314905Y6291224D01*
X2295652Y6296609D01*
X2234692Y6310782D01*
X2210104Y6318402D01*
X2176932Y6331712D01*
X2163622Y6338366D01*
X2161082Y6343142D01*
X2162556Y6423050D01*
X2164638Y6472021D01*
X2169007Y6519976D01*
X2170988Y6527495D01*
X2173732Y6559346D01*
X2173579Y6721195D01*
X2170887Y6821982D01*
X2173579Y6825183D01*
X2214372Y6823760D01*
X2231390Y6826148D01*
X2245004Y6833616D01*
X2257145Y6842506D01*
X2275535Y6860895D01*
X2283358Y6876440D01*
X2283307Y6891578D01*
X2278075Y6902856D01*
X2267966Y6916115D01*
X2256180Y6929932D01*
X2224582Y6961682D01*
X2223566Y6970420D01*
X2222347Y6989114D01*
X2217928Y7016191D01*
X2213711Y7034275D01*
X2209546Y7048144D01*
X2201672Y7066229D01*
X2191969Y7081164D01*
X2181199Y7091832D01*
X2143353Y7125360D01*
X2142286Y7132269D01*
X2141118Y7152487D01*
X2136902Y7168896D01*
X2132634Y7177278D01*
X2123897Y7184745D01*
X2114346Y7187387D01*
G37*
G36*
X1826158Y7121042D02*
G01*
X1810105Y7118959D01*
X1797253Y7114286D01*
X1786585Y7107529D01*
X1776730Y7097014D01*
X1771142Y7088581D01*
X1765960Y7074763D01*
X1762506Y7054697D01*
X1762556Y7039609D01*
X1766620Y7011924D01*
X1771294Y6994906D01*
X1775714Y6990080D01*
X1782825Y6990080D01*
X1787093Y6994347D01*
X1787093Y7000392D01*
X1783892Y7010857D01*
X1779625Y7034123D01*
X1779676Y7060895D01*
X1783537Y7075830D01*
X1788464Y7085431D01*
X1793646Y7092137D01*
X1805127Y7100011D01*
X1819656Y7104024D01*
X1836115Y7104024D01*
X1852320Y7100976D01*
X1867052Y7095693D01*
X1880666Y7089495D01*
X1894738Y7080859D01*
X1901139Y7079488D01*
X1906879Y7083958D01*
X1906879Y7091019D01*
X1898802Y7098284D01*
X1877466Y7109155D01*
X1863598Y7114489D01*
X1848612Y7118959D01*
X1832559Y7120788D01*
G37*
G36*
X2045360Y7013397D02*
G01*
X2020925Y7012279D01*
X1991207Y7007148D01*
X1989226Y7005929D01*
X1989226Y6999528D01*
X2001621Y6987184D01*
X2017572Y6984339D01*
X2045360Y6984593D01*
X2066747Y6987895D01*
X2078532Y6991908D01*
X2079193Y6997344D01*
X2069185Y7004964D01*
X2055012Y7011670D01*
G37*
M02*
